<svg width="363" height="211" viewBox="0 0 363 211" fill="none" xmlns="http://www.w3.org/2000/svg">
<path d="M52.5068 79.8194C52.5068 78.7906 52.8995 77.8215 53.6251 77.0909C54.3507 76.3603 55.3199 75.9527 56.3636 75.9478C58.4808 75.9478 60.2104 77.6674 60.2203 79.7846C60.2302 81.9118 58.5056 83.6463 56.3834 83.6562H56.3685C54.2513 83.6562 52.5218 81.9317 52.5118 79.8144L52.5068 79.8194ZM54.4153 77.8711C53.8985 78.393 53.6151 79.0789 53.6201 79.8095C53.6301 81.3154 54.8577 82.538 56.3636 82.538V83.0946L56.3735 82.538C57.8844 82.533 59.107 81.2955 59.1021 79.7846C59.0971 78.2787 57.8695 77.0561 56.3486 77.0561C55.6181 77.0561 54.9272 77.3493 54.4153 77.8662V77.8711Z" fill="#1E1F24" fill-opacity="0.67"/>
<path d="M347.859 85.4451C347.859 84.4163 348.252 83.4472 348.978 82.7166C349.703 81.986 350.672 81.5785 351.716 81.5735C353.833 81.5735 355.563 83.2931 355.573 85.4103C355.583 87.5375 353.858 89.272 351.736 89.282H351.721C349.604 89.282 347.874 87.5574 347.864 85.4401L347.859 85.4451ZM349.768 83.4969C349.251 84.0187 348.968 84.7046 348.973 85.4352C348.983 86.9411 350.21 88.1637 351.716 88.1637V88.7204L351.726 88.1637C353.237 88.1588 354.46 86.9212 354.455 85.4103C354.45 83.9044 353.222 82.6818 351.701 82.6818C350.971 82.6818 350.28 82.975 349.768 83.4919V83.4969Z" fill="#1E1F24" fill-opacity="0.76"/>
<path d="M259.723 120.137C259.723 119.108 260.115 118.139 260.841 117.409C261.567 116.678 262.536 116.271 263.579 116.266C265.697 116.266 267.426 117.985 267.436 120.102C267.446 122.23 265.721 123.964 263.599 123.974H263.584C261.467 123.974 259.738 122.25 259.728 120.132L259.723 120.137ZM261.631 118.194C261.114 118.716 260.831 119.402 260.836 120.132C260.846 121.638 262.073 122.861 263.579 122.861V123.417L263.589 122.861C265.1 122.856 266.323 121.618 266.318 120.107C266.313 118.602 265.085 117.379 263.564 117.379C262.834 117.379 262.143 117.672 261.631 118.189V118.194Z" fill="#1E1F24" fill-opacity="0.67"/>
<path d="M283.163 168.894C283.163 167.865 283.556 166.896 284.281 166.165C285.007 165.435 285.976 165.027 287.02 165.022C289.137 165.022 290.867 166.742 290.877 168.859C290.886 170.986 289.162 172.721 287.04 172.731H287.025C284.908 172.731 283.178 171.006 283.168 168.889L283.163 168.894ZM285.072 166.946C284.555 167.467 284.271 168.153 284.276 168.884C284.286 170.39 285.514 171.612 287.02 171.612V172.169L287.03 171.612C288.541 171.607 289.763 170.37 289.758 168.859C289.753 167.353 288.526 166.131 287.005 166.131C286.274 166.131 285.583 166.424 285.072 166.941V166.946Z" fill="#1E1F24" fill-opacity="0.67"/>
<path d="M75.5805 34.0003L77.7275 33.7816L75.3022 32.4645C75.0338 32.3154 74.9294 31.9775 75.0785 31.7091C75.2276 31.4358 75.5656 31.3413 75.834 31.4855L79.1042 33.2647L78.6867 29.6863C78.652 29.3782 78.8706 29.1048 79.1738 29.07C79.477 29.0353 79.7553 29.2539 79.7901 29.5571L80.1578 32.713L81.8377 30.4915C82.0266 30.2479 82.3745 30.1982 82.618 30.3821C82.8615 30.566 82.9113 30.9189 82.7274 31.1624L81.0028 33.4436L84.5563 33.0808C84.8645 33.051 85.1378 33.2747 85.1676 33.5778C85.1974 33.881 84.9788 34.1544 84.6756 34.1892H84.6706L81.4302 34.5172L84.1339 35.9883C84.4022 36.1374 84.5066 36.4754 84.3575 36.7437C84.2681 36.9127 84.104 37.0121 83.9301 37.032C83.8208 37.0419 83.7065 37.022 83.6021 36.9674L80.466 35.2627L80.8885 38.8659C80.9232 39.1741 80.7046 39.4474 80.4014 39.4822C80.0982 39.517 79.8199 39.2983 79.7851 38.9951L79.3875 35.5907L77.5983 37.9564C77.5039 38.0856 77.3597 38.1602 77.2156 38.1751C77.0814 38.19 76.9373 38.1552 76.818 38.0658C76.5745 37.8819 76.5248 37.529 76.7087 37.2855L78.5824 34.8104L75.6998 35.1036C75.3916 35.1334 75.1183 34.9098 75.0885 34.6066C75.0586 34.3034 75.2773 34.0301 75.5855 33.9953L75.5805 34.0003Z" fill="#1E1F24" fill-opacity="0.67"/>
<path d="M188.096 17.1231L190.243 16.9044L187.817 15.5873C187.549 15.4382 187.445 15.1002 187.594 14.8319C187.743 14.5585 188.081 14.4641 188.349 14.6082L191.619 16.3875L191.202 12.8091C191.167 12.5009 191.386 12.2276 191.689 12.1928C191.992 12.158 192.27 12.3767 192.305 12.6799L192.673 15.8358L194.353 13.6142C194.542 13.3707 194.89 13.321 195.133 13.5049C195.377 13.6888 195.426 14.0416 195.243 14.2852L193.518 16.5664L197.071 16.2036C197.38 16.1738 197.653 16.3974 197.683 16.7006C197.713 17.0038 197.494 17.2771 197.191 17.3119H197.186L193.945 17.6399L196.649 19.1111C196.917 19.2602 197.022 19.5981 196.873 19.8665C196.783 20.0355 196.619 20.1349 196.445 20.1548C196.336 20.1647 196.222 20.1448 196.117 20.0901L192.981 18.3854L193.404 21.9887C193.438 22.2968 193.22 22.5702 192.917 22.605C192.613 22.6398 192.335 22.4211 192.3 22.1179L191.903 18.7134L190.113 21.0792C190.019 21.2084 189.875 21.2829 189.731 21.2979C189.597 21.3128 189.452 21.278 189.333 21.1885C189.09 21.0046 189.04 20.6518 189.224 20.4082L191.098 17.9331L188.215 18.2264C187.907 18.2562 187.633 18.0326 187.604 17.7294C187.574 17.4262 187.792 17.1529 188.101 17.1181L188.096 17.1231Z" fill="#1E1F24" fill-opacity="0.67"/>
<path d="M323.114 184.02L325.261 183.802L322.835 182.485C322.567 182.336 322.463 181.998 322.612 181.729C322.761 181.456 323.099 181.362 323.367 181.506L326.637 183.285L326.22 179.707C326.185 179.398 326.404 179.125 326.707 179.09C327.01 179.055 327.288 179.274 327.323 179.577L327.691 182.733L329.371 180.512C329.56 180.268 329.908 180.218 330.151 180.402C330.395 180.586 330.444 180.939 330.261 181.183L328.536 183.464L332.09 183.101C332.398 183.071 332.671 183.295 332.701 183.598C332.731 183.901 332.512 184.175 332.209 184.209H332.204L328.963 184.537L331.667 186.008C331.935 186.158 332.04 186.496 331.891 186.764C331.801 186.933 331.637 187.032 331.463 187.052C331.354 187.062 331.24 187.042 331.135 186.988L327.999 185.283L328.422 188.886C328.456 189.194 328.238 189.468 327.935 189.502C327.631 189.537 327.353 189.319 327.318 189.015L326.921 185.611L325.132 187.977C325.037 188.106 324.893 188.18 324.749 188.195C324.615 188.21 324.47 188.175 324.351 188.086C324.108 187.902 324.058 187.549 324.242 187.306L326.116 184.831L323.233 185.124C322.925 185.154 322.651 184.93 322.622 184.627C322.592 184.324 322.811 184.05 323.119 184.016L323.114 184.02Z" fill="#1E1F24" fill-opacity="0.67"/>
<path d="M68.9244 210.403C68.5119 210.403 68.1193 210.403 67.0358 206.074C63.3679 205.369 63.0449 204.936 62.9405 204.792C62.8361 204.653 62.7914 204.4 62.8411 204.231C62.9057 203.997 63.0598 203.45 67.2495 201.76C68.7554 197.839 69.2624 197.839 69.6053 197.839C69.7792 197.839 70.0228 197.963 70.1271 198.108C70.3955 198.47 70.6391 199.41 71.0118 200.911C71.1261 201.383 71.2653 201.949 71.3498 202.198C71.5684 202.297 72.0555 202.471 72.4581 202.615C74.6101 203.386 75.1667 203.649 75.2661 204.166C75.3059 204.36 75.2065 204.643 75.0574 204.772C74.62 205.165 72.5376 205.935 71.4442 206.328C69.6699 210.364 69.2922 210.383 68.9542 210.403C68.9443 210.403 68.9294 210.403 68.9194 210.403H68.9244ZM64.357 204.315C65.0875 204.529 66.4245 204.832 67.5924 205.046C67.8061 205.085 67.9801 205.249 68.0298 205.458C68.328 206.666 68.7157 208.043 68.999 208.828C69.4065 208.097 70.0228 206.8 70.5198 205.657C70.5794 205.518 70.6987 205.403 70.8478 205.354C71.8418 205.001 72.97 204.573 73.6707 204.265C73.1787 204.062 72.5128 203.818 72.0804 203.664C70.8478 203.222 70.6142 203.127 70.4601 202.914C70.321 202.73 70.2365 202.421 69.9333 201.174C69.819 200.707 69.6401 199.986 69.486 199.449C69.1182 200.145 68.6113 201.333 68.2137 202.382C68.159 202.531 68.0447 202.645 67.9006 202.705C66.6084 203.222 65.1373 203.878 64.3669 204.31L64.357 204.315Z" fill="#1E1F24" fill-opacity="0.67"/>
<path d="M329.952 30.4856C329.952 30.4856 328.702 20.9755 337.85 24.0531C347.003 27.1308 344.022 35.8374 340.531 32.856C337.041 29.8746 343.586 19.7705 350.59 24.2738C357.594 28.7714 356.027 37.5007 351.06 38.1457C346.093 38.7906 354.069 27.9794 360.326 34.6551C366.583 41.3308 352.921 53.4997 347.331 49.0247C341.742 44.5498 346.115 37.3253 347.456 41.7268C348.797 46.1282 345.182 50.4448 335.27 50.275C325.358 50.1053 329.873 34.8587 333.335 39.2941C336.797 43.7351 331.05 48.7419 324.057 43.5145C317.065 38.2871 325.041 27.4759 329.946 30.4799L329.952 30.4856Z" fill="white"/>
<path d="M335.842 50.92H335.265C332.017 50.8578 329.732 49.1945 328.923 46.3262C327.214 46.1112 325.409 45.3192 323.678 44.0293C320.94 41.9813 320.012 38.8698 321.132 35.498C322.281 32.0414 325.342 29.3315 328.102 29.3315C328.498 29.3315 328.883 29.3824 329.251 29.4899C329.239 28.1661 329.443 25.9145 330.784 24.387C332.283 22.6784 334.75 22.3446 338.048 23.4535C339.321 23.8778 340.43 24.4322 341.363 25.1055C342.936 23.4422 344.95 22.5031 346.953 22.5031C348.31 22.5031 349.651 22.9217 350.93 23.742C353.956 25.6881 355.795 28.6752 355.942 31.8434C357.719 31.8943 359.348 32.6976 360.779 34.2251C362.725 36.3014 363.087 39.0961 361.792 42.0888C359.823 46.6374 354.437 50.6315 350.274 50.6315C348.972 50.6315 347.847 50.2581 346.93 49.5283C346.494 49.1775 346.098 48.7985 345.748 48.3968C343.558 50.0544 340.153 50.9256 335.83 50.9256L335.842 50.92ZM330.275 46.3771C330.841 47.9782 332.181 49.5905 335.293 49.6471H335.847C340.831 49.6471 343.553 48.4817 345.012 47.3728C343.615 45.1155 343.722 42.6489 344.497 41.1158C344.944 40.2332 345.595 39.7241 346.285 39.7241C346.743 39.7241 347.592 39.9617 348.073 41.5457C348.746 43.7521 348.248 45.9076 346.709 47.5425C347.009 47.8933 347.354 48.2214 347.739 48.5269C348.424 49.0757 349.284 49.3529 350.291 49.3529C353.945 49.3529 358.884 45.6473 360.643 41.574C361.407 39.8089 361.899 37.2461 359.868 35.085C358.675 33.8121 357.351 33.1445 355.925 33.1049C355.625 36.1429 353.725 38.4398 351.15 38.7736C350.975 38.7963 350.817 38.8076 350.664 38.8076C349.391 38.8076 348.904 38.0325 348.876 37.3027C348.803 35.5093 351.382 32.4996 354.686 31.9282C354.567 29.1618 352.938 26.5311 350.251 24.8056C347.609 23.1084 344.577 23.6119 342.353 25.9088C344.514 27.9681 344.916 30.4969 344.316 32.1885C343.898 33.3652 342.993 34.1006 341.963 34.1006C341.346 34.1006 340.707 33.8348 340.124 33.3369C338.201 31.6906 338.823 28.4829 340.56 26.0785C339.745 25.5071 338.772 25.0262 337.652 24.6528C334.886 23.725 332.905 23.9061 331.746 25.2186C330.156 27.0289 330.575 30.3668 330.58 30.4007C330.614 30.644 330.501 30.8816 330.297 31.0174C330.094 31.1532 329.828 31.1532 329.619 31.0287C329.16 30.7458 328.651 30.6044 328.108 30.6044C325.902 30.6044 323.311 32.9805 322.343 35.8997C321.902 37.2348 321.217 40.601 324.442 43.0166C325.851 44.0689 327.299 44.7535 328.668 45.0081C328.385 42.5471 329.138 40.1484 330.133 38.9151C330.688 38.2305 331.333 37.8628 332 37.8628C332.464 37.8628 333.16 38.0438 333.839 38.9151C335.072 40.4935 335.349 42.2699 334.608 43.7917C333.873 45.2966 332.232 46.264 330.269 46.3828L330.275 46.3771ZM346.285 40.997C346.166 40.997 345.889 41.1837 345.629 41.6928C345.063 42.813 344.967 44.7082 345.957 46.4846C347.049 45.2061 347.371 43.6107 346.857 41.9191C346.653 41.2459 346.398 40.997 346.285 40.997ZM332.006 39.1244C331.74 39.1244 331.423 39.3281 331.123 39.7014C330.275 40.7537 329.658 42.994 329.964 45.1155C331.57 45.0929 332.911 44.3744 333.466 43.2316C333.986 42.1624 333.76 40.8725 332.838 39.6901C332.634 39.4299 332.328 39.1244 332 39.1244H332.006ZM354.63 33.2351C351.971 33.8291 350.104 36.2731 350.143 37.2518C350.143 37.3706 350.155 37.5403 350.658 37.5347C350.754 37.5347 350.862 37.529 350.981 37.512C352.887 37.2631 354.313 35.5489 354.63 33.2294V33.2351ZM341.539 26.8875C340.039 28.9751 339.751 31.3512 340.945 32.3695C341.85 33.1389 342.727 32.856 343.117 31.7585C343.575 30.48 343.236 28.5338 341.539 26.8818V26.8875Z" fill="#1E1F24" fill-opacity="0.76"/>
<path d="M8.15676 91.3991C8.15676 91.3991 7.05837 83.0445 15.0949 85.7482C23.1364 88.4519 20.5172 96.1007 17.4507 93.4815C14.3842 90.8623 20.1345 81.9859 26.2874 85.942C32.4402 89.8932 31.0635 97.5619 26.6999 98.1285C22.3362 98.6951 29.3439 89.1974 34.8408 95.062C40.3376 100.927 28.335 111.617 23.4246 107.686C18.5142 103.755 22.3561 97.4078 23.534 101.274C24.7119 105.141 21.536 108.933 12.8286 108.784C4.12109 108.635 8.08717 95.2409 11.1288 99.1374C14.1705 103.039 9.12092 107.437 2.97798 102.845C-3.16495 98.2527 3.84278 88.755 8.15178 91.3941L8.15676 91.3991Z" fill="white"/>
<path d="M13.3301 109.351H12.8231C9.97035 109.296 7.96249 107.835 7.25178 105.315C5.75083 105.126 4.16539 104.43 2.64456 103.297C0.239077 101.498 -0.576005 98.7646 0.408058 95.8025C1.41697 92.7658 4.10575 90.3852 6.53112 90.3852C6.87902 90.3852 7.21696 90.4299 7.54001 90.5243C7.53007 89.3614 7.70901 87.3833 8.8869 86.0414C10.204 84.5404 12.3709 84.2472 15.2684 85.2213C16.3867 85.5941 17.3608 86.0811 18.1808 86.6726C19.5625 85.2114 21.3318 84.3864 23.0912 84.3864C24.284 84.3864 25.4619 84.7541 26.5851 85.4748C29.2441 87.1845 30.8593 89.8086 30.9886 92.5918C32.5491 92.6366 33.9805 93.3423 35.2379 94.6842C36.9476 96.5082 37.2657 98.9634 36.1275 101.593C34.398 105.588 29.6665 109.097 26.0086 109.097C24.8655 109.097 23.8764 108.769 23.0713 108.128C22.6886 107.82 22.3407 107.487 22.0326 107.134C20.1092 108.59 17.1172 109.356 13.3201 109.356L13.3301 109.351ZM8.43962 105.36C8.93662 106.766 10.1145 108.183 12.848 108.232H13.3351C17.7136 108.232 20.1042 107.209 21.3865 106.235C20.1589 104.252 20.2533 102.085 20.9342 100.738C21.3268 99.9624 21.8984 99.5151 22.5047 99.5151C22.9073 99.5151 23.6528 99.7238 24.0753 101.115C24.6667 103.054 24.2293 104.947 22.8775 106.384C23.1409 106.692 23.4441 106.98 23.782 107.248C24.3834 107.731 25.1388 107.974 26.0235 107.974C29.2341 107.974 33.573 104.719 35.1186 101.14C35.7896 99.5896 36.222 97.3382 34.4378 95.4397C33.3891 94.3214 32.2261 93.7349 30.9736 93.7002C30.7102 96.369 29.0403 98.3869 26.7789 98.6801C26.6249 98.7 26.4857 98.7099 26.3515 98.7099C25.2333 98.7099 24.8058 98.0291 24.781 97.3879C24.7164 95.8124 26.9827 93.1684 29.8852 92.6664C29.7808 90.2361 28.3495 87.925 25.9887 86.4092C23.6677 84.9181 21.0038 85.3605 19.0506 87.3783C20.9491 89.1874 21.302 91.409 20.7752 92.895C20.4074 93.9288 19.6122 94.5749 18.7077 94.5749C18.1659 94.5749 17.6043 94.3413 17.0924 93.9039C15.4026 92.4577 15.9493 89.6397 17.4751 87.5274C16.7594 87.0254 15.9046 86.603 14.9205 86.275C12.4902 85.4599 10.7507 85.6189 9.73181 86.772C8.33523 88.3624 8.70302 91.2947 8.70799 91.3245C8.73781 91.5382 8.63841 91.7469 8.45949 91.8662C8.28056 91.9855 8.04697 91.9855 7.86308 91.8762C7.46051 91.6277 7.01321 91.5034 6.53609 91.5034C4.59779 91.5034 2.32152 93.5908 1.47165 96.1553C1.08399 97.3283 0.482596 100.285 3.3155 102.408C4.55304 103.332 5.82538 103.933 7.02812 104.157C6.77962 101.995 7.44064 99.8878 8.31537 98.8044C8.80243 98.203 9.369 97.88 9.95546 97.88C10.363 97.88 10.9743 98.039 11.5707 98.8044C12.6542 100.191 12.8977 101.752 12.2466 103.089C11.6005 104.411 10.1592 105.26 8.43464 105.365L8.43962 105.36ZM22.5047 100.633C22.4004 100.633 22.1568 100.797 21.9282 101.245C21.4312 102.229 21.3467 103.894 22.2165 105.454C23.1757 104.331 23.459 102.929 23.0067 101.443C22.8278 100.852 22.6041 100.633 22.5047 100.633ZM9.96044 98.9932C9.72685 98.9932 9.44853 99.1722 9.18512 99.5002C8.43962 100.425 7.89786 102.393 8.16624 104.256C9.57772 104.237 10.7556 103.605 11.2427 102.601C11.6999 101.662 11.5011 100.529 10.691 99.4902C10.5121 99.2616 10.2437 98.9932 9.95546 98.9932H9.96044ZM29.8355 93.8145C27.4996 94.3363 25.8595 96.4834 25.8943 97.3432C25.8943 97.4476 25.9042 97.5967 26.3466 97.5917C26.431 97.5917 26.5255 97.5867 26.6299 97.5718C28.3047 97.3531 29.5572 95.8472 29.8355 93.8095V93.8145ZM18.3349 88.2431C17.0178 90.077 16.7644 92.1644 17.8131 93.059C18.6033 93.735 19.3786 93.4864 19.7215 92.5223C20.1241 91.399 19.8259 89.6894 18.3349 88.2381V88.2431Z" fill="#1E1F24" fill-opacity="0.76"/>
<path d="M38.4506 163.747C38.3314 163.528 38.1177 163.384 37.8642 163.359C37.1087 163.285 34.8723 164.135 32.9986 164.925C29.1369 160.894 28.8188 161.118 28.3864 161.416C28.2025 161.545 28.0981 161.759 28.1081 162.003C28.1379 162.788 28.2373 164.801 28.4013 167.037C27.2135 167.634 25.7125 168.429 24.6937 169.135C23.7841 169.761 23.4213 170.203 23.4412 170.655C23.4511 170.919 23.6002 171.147 23.8438 171.287C24.5396 171.679 27.1787 172.3 28.9331 172.683C29.5693 177.827 30.2601 178.821 31.1547 178.732C31.3336 178.712 31.4926 178.612 31.5821 178.458C31.597 178.438 32.8445 176.306 34.2609 173.732C39.6633 174.686 40.0759 174.398 40.2995 174.244C40.5281 174.085 40.6325 173.692 40.5033 173.444C40.2597 172.961 38.1425 170.541 36.7509 168.99C38.7489 164.955 38.6842 164.179 38.4457 163.742L38.4506 163.747ZM30.0911 172.932C31.0901 173.14 32.1089 173.339 33.1029 173.523C32.2182 175.123 31.4181 176.515 30.9807 177.28C30.767 176.768 30.439 175.601 30.0911 172.932ZM28.4957 168.245C28.5902 169.428 28.6945 170.521 28.7989 171.515C26.6717 171.043 25.3944 170.695 24.7781 170.476C24.8974 170.372 25.0714 170.233 25.3298 170.054C26.0405 169.562 27.129 168.941 28.4908 168.245H28.4957ZM31.9051 165.397C31.095 165.755 30.275 166.128 29.4848 166.51C29.3854 165.064 29.3108 163.747 29.2661 162.842C29.7333 163.235 30.5384 163.986 31.9051 165.397ZM35.4239 169.174C34.922 170.163 34.3355 171.277 33.6745 172.494C32.4518 172.271 31.1795 172.022 29.9519 171.759C29.8177 170.556 29.6885 169.194 29.5742 167.703C30.5931 167.206 31.6666 166.714 32.7252 166.252C33.6148 167.191 34.5442 168.2 35.419 169.169L35.4239 169.174ZM39.0123 173.299C38.3065 173.235 36.9895 173.076 34.8275 172.703C35.3394 171.754 35.8066 170.874 36.2191 170.069C37.5411 171.55 38.4805 172.653 39.0123 173.299ZM37.4219 164.517C37.3324 164.94 37.0193 165.919 35.9557 168.106C35.2549 167.335 34.5293 166.545 33.8236 165.795C35.6923 165.024 36.8652 164.642 37.4219 164.517Z" fill="#1E1F24" fill-opacity="0.67"/>
<path d="M18.9163 49.6941C18.8058 49.6941 18.6952 49.674 18.5896 49.6389C16.6493 48.9753 16.9811 42.5462 17.2123 39.8116C17.2374 39.5 17.524 39.2838 17.8205 39.2989C18.1322 39.324 18.3634 39.5955 18.3333 39.9072C17.9713 44.205 18.2629 48.3369 18.9515 48.5682C19.5397 48.2515 20.4746 44.1346 20.917 39.5804C20.9472 39.2688 21.2236 39.0526 21.5302 39.0727C21.8419 39.1029 22.0681 39.3794 22.0379 39.686C21.8369 41.7369 21.0678 48.4978 19.4894 49.5132C19.3084 49.6288 19.1124 49.6891 18.9163 49.6891V49.6941Z" fill="#1E1F24" fill-opacity="0.76"/>
<path d="M40.139 42.3402C38.254 42.3402 33.9009 37.1375 32.614 35.539C32.418 35.2978 32.4532 34.9409 32.6995 34.7448C32.9408 34.5488 33.2976 34.5839 33.4937 34.8303C36.369 38.3892 39.39 41.2644 40.149 41.2142C40.526 40.6813 38.5003 37.0722 35.8311 33.6842C35.6401 33.4379 35.6803 33.086 35.9266 32.89C36.1729 32.6989 36.5248 32.7392 36.7209 32.9855C38.4199 35.1419 42.2351 40.3295 40.9785 41.9481C40.7824 42.1994 40.4909 42.3402 40.1591 42.3452H40.149L40.139 42.3402Z" fill="#1E1F24" fill-opacity="0.76"/>
<path d="M15.4785 38.7008C15.383 38.7008 15.2875 38.6756 15.202 38.6304C15.0613 38.55 14.9658 38.4193 14.9306 38.2634C14.7949 37.6653 11.6833 23.5955 15.6494 18.1315C16.5844 16.8446 17.836 16.1158 19.3792 15.97C28.3519 15.1507 33.9315 31.1758 34.1577 31.8443C34.208 31.9851 34.1979 32.1409 34.1276 32.2766C34.0622 32.4124 33.9466 32.5129 33.8009 32.5632L15.6595 38.6756C15.5991 38.6957 15.5388 38.7058 15.4785 38.7058V38.7008ZM20.0528 17.0658C19.8618 17.0658 19.6758 17.0759 19.4797 17.091C18.2583 17.2066 17.3032 17.7595 16.5592 18.79C13.3321 23.2386 15.3478 34.6241 15.9007 37.3989L32.891 31.6734C31.8756 28.9892 26.9846 17.0658 20.0528 17.0658Z" fill="#1E1F24" fill-opacity="0.76"/>
<path d="M13.7089 32.2314L31.9107 26.325L43.5575 28.1547C43.5575 28.1547 28.3467 50.6945 5.62598 39.314L13.7089 32.2264V32.2314Z" fill="#FF6868"/>
<path d="M24.8631 22.6404C24.6218 22.6404 24.3956 22.4846 24.3252 22.2383C23.4305 19.2474 19.9671 19.8255 19.8213 19.8506C19.5147 19.9009 19.2231 19.6998 19.1678 19.3932C19.1125 19.0865 19.3136 18.795 19.6203 18.7397C21.2037 18.4532 24.4509 18.7397 25.406 21.9166C25.4965 22.2131 25.3256 22.5298 25.029 22.6203C24.9737 22.6354 24.9184 22.6454 24.8681 22.6454L24.8631 22.6404Z" fill="#1E1F24" fill-opacity="0.76"/>
<path d="M13.4224 28.3206L30.4629 22.9872L31.9106 26.325L13.7089 32.2314L13.4224 28.3206Z" fill="#ED5A5A"/>
<path d="M15.6945 39.5152C14.4931 39.5152 13.4124 38.7109 13.0655 37.5598C12.6282 36.1121 13.4576 34.5789 14.9053 34.1416C16.3279 33.7143 17.9012 34.5739 18.3235 35.9814C18.7558 37.4341 17.9314 38.9673 16.4837 39.3995C16.2273 39.4749 15.9609 39.5152 15.6945 39.5152ZM15.6945 35.152C15.5387 35.152 15.3829 35.1771 15.2321 35.2224C14.3775 35.4787 13.8899 36.3835 14.1463 37.2381C14.3926 38.0675 15.3225 38.5752 16.162 38.3238C17.0165 38.0675 17.5041 37.1627 17.2477 36.3081C17.0416 35.6295 16.4083 35.157 15.6995 35.157L15.6945 35.152Z" fill="#1E1F24" fill-opacity="0.76"/>
<path d="M25.2855 38.4243C24.0841 38.4243 23.0033 37.6201 22.6565 36.4689C22.4454 35.7652 22.5208 35.0213 22.8676 34.3778C23.2145 33.7344 23.7925 33.2619 24.4963 33.0508C25.9138 32.6235 27.4922 33.4831 27.9144 34.8905C28.1256 35.5943 28.0502 36.3383 27.7033 36.9817C27.3565 37.6251 26.7784 38.0976 26.0746 38.3087C25.8183 38.3892 25.5519 38.4243 25.2855 38.4243ZM25.2905 34.0612C25.1347 34.0612 24.9788 34.0863 24.823 34.1315C24.4108 34.2572 24.069 34.5337 23.8629 34.9157C23.6568 35.2977 23.6116 35.735 23.7372 36.1472C23.9886 36.9766 24.9135 37.4793 25.753 37.233C26.1652 37.1073 26.507 36.8309 26.7131 36.4488C26.9191 36.0668 26.9644 35.6295 26.8387 35.2173C26.6326 34.5387 25.9992 34.0662 25.2905 34.0662V34.0612Z" fill="#1E1F24" fill-opacity="0.76"/>
<path d="M33.7503 34.6392C32.5489 34.6392 31.4682 33.8349 31.1213 32.6838C30.689 31.2311 31.5134 29.6979 32.9611 29.2656C34.3736 28.8384 35.957 29.6979 36.3793 31.1054C36.5904 31.8092 36.515 32.5531 36.1681 33.1965C35.8213 33.8399 35.2432 34.3125 34.5395 34.5236C34.2831 34.599 34.0167 34.6392 33.7503 34.6392ZM33.7503 30.276C33.5945 30.276 33.4386 30.3011 33.2828 30.3464C32.4283 30.6027 31.9407 31.5076 32.1971 32.3621C32.4434 33.1915 33.3683 33.6942 34.2127 33.4478C34.6249 33.3222 34.9668 33.0457 35.1729 32.6637C35.379 32.2817 35.4242 31.8444 35.2985 31.4322C35.0975 30.7536 34.4591 30.281 33.7503 30.281V30.276Z" fill="#1E1F24" fill-opacity="0.76"/>
<path d="M282.704 95.7992C282.55 95.7992 282.396 95.7644 282.251 95.6899C280.442 94.7754 281.65 88.5231 282.251 85.8791C282.321 85.5809 282.619 85.387 282.917 85.4616C283.216 85.5311 283.404 85.8294 283.34 86.1276C282.396 90.2875 282.117 94.3728 282.758 94.6958C283.375 94.4672 284.856 90.5608 285.914 86.1623C285.984 85.8641 286.287 85.6802 286.585 85.7498C286.883 85.8194 287.067 86.1226 286.998 86.4208C286.521 88.3988 284.841 94.9145 283.156 95.6948C283.007 95.7644 282.858 95.7992 282.704 95.7992Z" fill="#1E1F24" fill-opacity="0.76"/>
<path d="M304.517 91.515C304.467 91.515 304.417 91.515 304.368 91.5051C302.529 91.2665 298.965 85.556 297.922 83.8115C297.763 83.5481 297.847 83.2052 298.11 83.0461C298.374 82.8871 298.717 82.9765 298.876 83.235C301.207 87.1166 303.791 90.3968 304.517 90.3968C304.959 89.9246 303.468 86.1126 301.321 82.4298C301.167 82.1664 301.256 81.8235 301.52 81.6694C301.788 81.5104 302.126 81.6048 302.28 81.8682C303.647 84.2091 306.674 89.8153 305.223 91.2268C305.034 91.4107 304.785 91.51 304.512 91.51L304.517 91.515Z" fill="#1E1F24" fill-opacity="0.76"/>
<path d="M280.79 84.557C280.671 84.557 280.551 84.5172 280.452 84.4427C280.328 84.3483 280.248 84.2041 280.233 84.0451C280.184 83.4537 279.085 69.4432 283.598 64.5378C284.706 63.3351 286.063 62.7486 287.643 62.8281C296.545 63.2257 299.805 79.6963 299.939 80.3971C299.969 80.5412 299.939 80.6953 299.85 80.8146C299.765 80.9388 299.636 81.0233 299.492 81.0482L280.889 84.5421C280.854 84.5471 280.82 84.552 280.785 84.552L280.79 84.557ZM287.39 63.9414C286.232 63.9414 285.263 64.3837 284.423 65.2982C280.74 69.2941 281.148 80.5711 281.307 83.3394L298.732 80.0691C298.09 77.2262 294.78 64.2744 287.599 63.9513H287.39V63.9414Z" fill="#1E1F24" fill-opacity="0.76"/>
<path d="M279.865 77.9767L298.498 74.6915L309.651 78.0811C309.651 78.0811 291.664 98.0655 270.974 83.8065L279.861 77.9767H279.865Z" fill="#FF6868"/>
<path d="M292.181 70.1241C291.913 70.1241 291.674 69.9253 291.629 69.6519C291.157 66.5804 287.703 66.6798 287.549 66.6947C287.246 66.6947 286.982 66.4661 286.967 66.158C286.953 65.8499 287.196 65.5914 287.499 65.5765C289.1 65.5168 292.231 66.2425 292.728 69.478C292.772 69.7811 292.564 70.0694 292.261 70.1141C292.231 70.1141 292.201 70.1191 292.176 70.1191L292.181 70.1241Z" fill="#1E1F24" fill-opacity="0.76"/>
<path d="M280.119 74.11L297.539 71.2225L298.498 74.6915L279.866 77.9767L280.119 74.11Z" fill="#ED5A5A"/>
<path d="M281.182 85.4068C279.855 85.4068 278.702 84.4178 278.503 83.1057C278.275 81.6247 279.293 80.238 280.775 80.0094C282.295 79.7758 283.642 80.8096 283.871 82.2807C284.099 83.7618 283.081 85.1484 281.6 85.377C281.46 85.3969 281.321 85.4068 281.187 85.4068H281.182ZM281.187 81.0929C281.108 81.0929 281.023 81.0978 280.944 81.1127C280.074 81.2469 279.472 82.067 279.607 82.9367C279.736 83.7916 280.551 84.4178 281.431 84.2737C282.3 84.1395 282.902 83.3194 282.767 82.4497C282.648 81.6744 281.972 81.0929 281.192 81.0929H281.187Z" fill="#1E1F24" fill-opacity="0.76"/>
<path d="M290.73 85.6554C289.403 85.6554 288.25 84.6663 288.051 83.3543C287.822 81.8732 288.841 80.4866 290.322 80.258C291.808 80.0244 293.195 81.078 293.419 82.5293C293.647 84.0103 292.629 85.3969 291.147 85.6256C291.008 85.6454 290.869 85.6554 290.735 85.6554H290.73ZM290.735 81.3414C290.655 81.3414 290.571 81.3464 290.491 81.3613C289.622 81.4955 289.02 82.3155 289.154 83.1853C289.284 84.0401 290.099 84.6663 290.978 84.5222C291.848 84.388 292.45 83.568 292.315 82.6982C292.196 81.9229 291.52 81.3414 290.735 81.3414Z" fill="#1E1F24" fill-opacity="0.76"/>
<path d="M299.532 83.1107C298.205 83.1107 297.052 82.1217 296.853 80.8096C296.625 79.3285 297.644 77.9419 299.125 77.7133C300.611 77.4797 301.997 78.5383 302.221 79.9846C302.33 80.7003 302.156 81.4159 301.729 82.0024C301.302 82.5889 300.67 82.9715 299.95 83.0809C299.81 83.1008 299.671 83.1107 299.537 83.1107H299.532ZM299.542 78.7967C299.463 78.7967 299.378 78.8017 299.299 78.8166C298.429 78.9508 297.827 79.7708 297.962 80.6406C298.091 81.4954 298.901 82.1167 299.786 81.9775C300.208 81.9129 300.581 81.6843 300.834 81.3414C301.088 80.9985 301.192 80.576 301.128 80.1535C301.008 79.3782 300.332 78.7967 299.552 78.7967H299.542Z" fill="#1E1F24" fill-opacity="0.76"/>
<path d="M63.5807 107.73C63.5807 107.73 93.7388 93.551 101.174 98.5657C108.609 103.58 109.444 123.277 113.753 125.265C118.062 127.253 125.979 126.502 124.553 130.891C123.126 135.279 83.9329 153.45 71.9055 150.353C59.8831 147.257 48.2681 115.235 63.5807 107.725V107.73Z" fill="#FF6868"/>
<path d="M90.2151 139.374C90.2151 139.374 64.3114 133.584 67.8848 119.852C69.7486 112.691 84.261 120.613 84.261 120.613C84.261 120.613 82.8297 106.533 93.873 109.41C104.916 112.288 91.1892 139.31 90.2151 139.374Z" fill="white"/>
<path d="M293.387 47.3252C293.368 47.3186 293.349 47.312 293.332 47.2991C293.149 47.2002 293.079 46.9703 293.181 46.7893C293.389 46.4042 293.621 45.96 293.856 45.4671C293.946 45.2785 294.178 45.2063 294.359 45.2903C294.549 45.3808 294.628 45.6066 294.538 45.792C294.296 46.2965 294.059 46.7533 293.845 47.1469C293.756 47.3111 293.56 47.3816 293.388 47.3221L293.387 47.3252ZM294.69 44.6143C294.69 44.6143 294.674 44.6088 294.667 44.6065C294.474 44.5255 294.383 44.306 294.463 44.1142C294.648 43.6746 294.829 43.2128 294.999 42.7328C295.067 42.5365 295.283 42.4376 295.477 42.5049C295.674 42.5732 295.778 42.7897 295.706 42.9849C295.532 43.4776 295.346 43.9552 295.154 44.4063C295.076 44.5887 294.87 44.6803 294.682 44.6152L294.69 44.6143ZM232.808 20.7406C232.626 20.6778 232.519 20.4845 232.563 20.2943C232.571 20.2722 232.708 19.6995 233.004 18.8237C233.072 18.6274 233.284 18.52 233.482 18.5884C233.679 18.6567 233.783 18.8701 233.717 19.0632C233.431 19.9073 233.295 20.4662 233.293 20.4725C233.244 20.6754 233.038 20.7956 232.838 20.7474C232.825 20.743 232.815 20.7397 232.803 20.7353L232.808 20.7406ZM295.692 41.7817C295.504 41.7166 295.398 41.517 295.451 41.3227C295.588 40.8348 295.705 40.3541 295.797 39.89C295.839 39.6881 296.038 39.5551 296.241 39.597C296.451 39.6305 296.578 39.8379 296.537 40.0398C296.441 40.5239 296.32 41.0279 296.177 41.5316C296.122 41.7323 295.911 41.8471 295.713 41.7925C295.706 41.7903 295.7 41.7881 295.691 41.7848L295.692 41.7817ZM277.272 35.114C277.075 35.0457 276.964 34.8301 277.032 34.6339C277.1 34.4376 277.311 34.3334 277.508 34.4017C277.865 34.5252 278.197 34.4416 278.532 34.1535C278.69 34.0168 278.926 34.0347 279.064 34.1923C279.202 34.35 279.185 34.5851 279.027 34.7218C278.487 35.1906 277.876 35.3266 277.268 35.1161L277.272 35.114ZM276.098 34.1827C276.034 34.1606 275.974 34.1185 275.925 34.0627C275.541 33.586 275.307 33.0688 275.231 32.5251C275.202 32.3202 275.347 32.1292 275.553 32.1012C275.758 32.0731 275.951 32.2177 275.98 32.4227C276.038 32.8294 276.219 33.225 276.514 33.5968C276.644 33.7585 276.618 33.9977 276.456 34.126C276.352 34.2104 276.214 34.2266 276.097 34.1858L276.098 34.1827ZM233.765 17.8926C233.765 17.8926 233.753 17.8882 233.746 17.886C233.552 17.8081 233.457 17.5875 233.538 17.3956C233.716 16.9539 233.922 16.4828 234.155 15.9962C234.244 15.8109 234.467 15.7322 234.658 15.8195C234.847 15.91 234.926 16.1358 234.837 16.3212C234.611 16.7888 234.413 17.2482 234.239 17.6773C234.164 17.8639 233.954 17.9544 233.766 17.8894L233.765 17.8926ZM279.532 33.5817C279.532 33.5817 279.503 33.5718 279.488 33.5663C279.302 33.4737 279.223 33.248 279.316 33.0637C279.444 32.8068 279.563 32.5148 279.67 32.2046C279.724 32.0495 279.775 31.8901 279.823 31.7222C279.881 31.5227 280.089 31.4067 280.29 31.4655C280.487 31.5021 280.608 31.7316 280.549 31.9311C280.497 32.1117 280.441 32.2837 280.384 32.4483C280.266 32.7901 280.134 33.1095 279.993 33.3938C279.908 33.5665 279.71 33.6434 279.532 33.5817ZM250.567 23.3834C250.567 23.3834 250.49 23.357 250.487 23.3559C250.292 23.2812 250.193 23.0626 250.267 22.8686C250.342 22.6745 250.587 22.6036 250.756 22.6514L250.759 22.6525C251.157 22.7903 251.413 22.7014 251.618 22.3862C251.732 22.2128 251.965 22.1661 252.143 22.2808C252.318 22.3944 252.365 22.6272 252.251 22.8037C251.854 23.4037 251.239 23.616 250.567 23.3834ZM296.271 38.8311C296.109 38.7749 296.001 38.6134 296.019 38.4356C296.071 37.936 296.095 37.4445 296.089 36.978C296.086 36.7713 296.255 36.6029 296.462 36.6004C296.67 36.5978 296.841 36.7633 296.843 36.9732C296.849 37.4714 296.822 37.9905 296.768 38.5176C296.747 38.7229 296.562 38.8752 296.353 38.8523C296.322 38.8487 296.295 38.8431 296.267 38.8332L296.271 38.8311ZM249.335 22.4216C249.265 22.3973 249.201 22.3541 249.156 22.2889C248.829 21.8531 248.608 21.3404 248.493 20.7654C248.452 20.5635 248.585 20.3649 248.791 20.3263C248.997 20.2877 249.194 20.4196 249.233 20.6247C249.322 21.088 249.501 21.4974 249.76 21.8422C249.884 22.0092 249.852 22.2462 249.685 22.369C249.579 22.446 249.449 22.4613 249.335 22.4216ZM275.699 31.358C275.699 31.358 275.68 31.3514 275.671 31.3481C275.479 31.2639 275.392 31.0423 275.475 30.8515C275.679 30.3868 275.989 29.9341 276.399 29.5124C276.543 29.3638 276.784 29.3585 276.933 29.5057C277.082 29.6497 277.088 29.8893 276.944 30.0379C276.596 30.3958 276.337 30.7739 276.169 31.1554C276.088 31.3366 275.884 31.4219 275.699 31.358ZM252.221 21.5208C252.062 21.4657 251.954 21.3116 251.968 21.139C252 20.707 251.976 20.2308 251.903 19.72C251.874 19.515 252.015 19.323 252.221 19.295C252.428 19.2638 252.62 19.4084 252.649 19.6133C252.732 20.1772 252.758 20.7107 252.721 21.1978C252.706 21.4054 252.525 21.5587 252.316 21.5433C252.281 21.5417 252.251 21.535 252.22 21.524L252.221 21.5208ZM235.072 15.1795C235.05 15.1718 235.027 15.1641 235.007 15.1501C234.825 15.048 234.762 14.8172 234.867 14.6373C235.131 14.1755 235.41 13.7404 235.692 13.3382C235.811 13.167 236.046 13.1277 236.218 13.2477C236.388 13.3665 236.431 13.6013 236.311 13.7725C236.043 14.1548 235.777 14.5731 235.525 15.0139C235.434 15.1738 235.244 15.2391 235.075 15.1806L235.072 15.1795ZM280.398 30.7091C280.226 30.6496 280.116 30.4733 280.148 30.2893C280.228 29.8208 280.29 29.3319 280.333 28.829C280.351 28.6225 280.532 28.4691 280.74 28.4878C280.944 28.5054 281.102 28.6876 281.084 28.8941C281.041 29.4182 280.975 29.9303 280.891 30.4189C280.856 30.623 280.659 30.7603 280.453 30.7247C280.433 30.7213 280.413 30.7178 280.394 30.7112L280.398 30.7091ZM248.706 19.5525C248.54 19.4952 248.43 19.3294 248.453 19.1496C248.513 18.6882 248.625 18.2096 248.792 17.7284L248.83 17.6177C248.898 17.4214 249.087 17.3201 249.313 17.3877C249.51 17.456 249.614 17.6726 249.542 17.8677L249.505 17.9753C249.355 18.409 249.254 18.8348 249.201 19.2453C249.175 19.4527 248.987 19.5965 248.778 19.5704C248.751 19.5679 248.725 19.5591 248.703 19.5514L248.706 19.5525ZM296.225 35.834C296.098 35.79 295.998 35.6773 295.975 35.535C295.901 35.0486 295.79 34.5776 295.641 34.1325C295.577 33.9367 295.683 33.7218 295.88 33.6587C296.078 33.5925 296.293 33.7024 296.357 33.8983C296.517 34.3827 296.639 34.8962 296.721 35.4209C296.753 35.627 296.612 35.8191 296.405 35.8502C296.341 35.86 296.282 35.8539 296.225 35.834ZM277.717 29.1854C277.641 29.1589 277.573 29.1072 277.524 29.0334C277.409 28.8591 277.459 28.6244 277.637 28.5123C278.054 28.2423 278.524 27.9973 279.024 27.7803C279.216 27.6981 279.439 27.7858 279.519 27.9766C279.602 28.1685 279.515 28.3899 279.322 28.4722C278.862 28.6706 278.43 28.897 278.046 29.1431C277.945 29.2075 277.823 29.2186 277.715 29.1811L277.717 29.1854ZM251.811 18.5539C251.7 18.5153 251.612 18.4283 251.572 18.308C251.429 17.8546 251.252 17.3997 251.043 16.9517C250.955 16.7651 251.035 16.5414 251.227 16.4517C251.417 16.3652 251.642 16.4467 251.73 16.6365C251.953 17.1143 252.144 17.6023 252.294 18.0865C252.357 18.2856 252.245 18.495 252.045 18.557C251.965 18.5825 251.884 18.5793 251.811 18.5539ZM280.476 27.9925C280.361 27.9528 280.269 27.8604 280.234 27.7349C280.187 27.57 280.259 27.4035 280.396 27.3163C280.4 26.8425 280.387 26.3558 280.354 25.8731C280.34 25.6663 280.499 25.4871 280.709 25.4751C280.92 25.4631 281.097 25.6233 281.111 25.8302C281.137 26.2577 281.152 26.6882 281.154 27.1144C281.439 27.0535 281.728 27.0011 282.022 26.9573C282.227 26.9293 282.418 27.0696 282.45 27.2757C282.482 27.4817 282.337 27.6727 282.131 27.7007C281.64 27.7716 281.16 27.8712 280.699 27.9986C280.624 28.0188 280.543 28.0156 280.476 27.9925ZM295.273 32.9914C295.187 32.9617 295.111 32.9034 295.066 32.817C294.835 32.4037 294.562 32.0079 294.252 31.6381C294.118 31.4784 294.139 31.2413 294.296 31.1077C294.456 30.9752 294.695 30.9943 294.829 31.154C295.17 31.5591 295.473 31.9935 295.728 32.4505C295.828 32.6342 295.764 32.8601 295.579 32.9626C295.482 33.0175 295.37 33.0213 295.274 32.9882L295.273 32.9914ZM236.808 12.7287C236.763 12.7133 236.719 12.6872 236.681 12.6528C236.526 12.514 236.512 12.2754 236.651 12.1214C237.012 11.7181 237.391 11.3532 237.778 11.0404C237.938 10.9079 238.176 10.9301 238.308 11.093C238.442 11.2527 238.417 11.4888 238.257 11.6212C237.901 11.9091 237.552 12.2489 237.216 12.6218C237.111 12.738 236.949 12.774 236.809 12.7255L236.808 12.7287ZM249.703 16.7357C249.68 16.728 249.658 16.7203 249.638 16.7062C249.456 16.6042 249.393 16.3734 249.495 16.1924C249.674 15.8821 249.869 15.5741 250.084 15.2728C249.901 15.0001 249.7 14.7356 249.494 14.4764C249.364 14.3146 249.389 14.0786 249.552 13.9472C249.715 13.8158 249.951 13.8444 250.084 14.0072C250.282 14.2494 250.469 14.502 250.647 14.7588C250.735 14.7536 250.822 14.7802 250.895 14.8373C251.037 14.9505 251.081 15.1429 251.002 15.2998C251.092 15.4727 251.035 15.6871 250.867 15.7919C250.786 15.8417 250.695 15.8564 250.61 15.8447C250.446 16.0821 250.294 16.3238 250.153 16.5689C250.062 16.7288 249.87 16.7973 249.702 16.7389L249.703 16.7357ZM283.456 27.5498C283.313 27.5002 283.209 27.3684 283.201 27.2061C283.195 26.9983 283.355 26.8235 283.564 26.8177C284.076 26.8002 284.598 26.8071 285.116 26.8447C285.324 26.8602 285.483 27.0393 285.469 27.2469C285.454 27.4544 285.276 27.6089 285.066 27.5966C284.579 27.5626 284.083 27.5539 283.596 27.5696C283.549 27.5711 283.501 27.5652 283.456 27.5498ZM293.344 30.6965C293.303 30.6822 293.26 30.6604 293.227 30.6314C292.867 30.333 292.465 30.0521 292.04 29.7984C291.86 29.69 291.804 29.4614 291.909 29.2815C292.014 29.1017 292.251 29.0455 292.427 29.1527C292.885 29.428 293.318 29.7306 293.709 30.0537C293.87 30.1873 293.891 30.425 293.761 30.5823C293.658 30.706 293.49 30.7472 293.347 30.6976L293.344 30.6965ZM286.466 27.7551C286.294 27.6956 286.187 27.5203 286.215 27.3352C286.25 27.1311 286.444 26.9927 286.65 27.0283C287.148 27.1123 287.658 27.225 288.16 27.3599C288.365 27.4061 288.48 27.6196 288.428 27.8214C288.373 28.022 288.169 28.1391 287.966 28.0866C287.486 27.9594 286.999 27.8512 286.525 27.7686C286.505 27.7651 286.485 27.7617 286.462 27.754L286.466 27.7551ZM290.776 29.1234C290.776 29.1234 290.751 29.1146 290.738 29.1102C290.288 28.8975 289.831 28.7038 289.375 28.5356C289.179 28.4641 289.08 28.2455 289.151 28.0504C289.222 27.8552 289.415 27.7518 289.638 27.829C290.112 28.0038 290.591 28.2052 291.06 28.4276C291.25 28.5181 291.329 28.7407 291.239 28.9292C291.158 29.103 290.955 29.1851 290.776 29.1234ZM239.143 10.854C239.054 10.8231 238.979 10.7617 238.931 10.6741C238.834 10.4916 238.905 10.2647 239.088 10.1685C239.572 9.91419 240.076 9.7269 240.584 9.60857C240.785 9.56143 240.992 9.68606 241.04 9.88702C241.088 10.088 240.963 10.293 240.762 10.3402C240.316 10.4445 239.872 10.6135 239.443 10.8336C239.346 10.8853 239.239 10.887 239.143 10.854ZM280.465 24.7097C280.334 24.6646 280.232 24.5477 280.214 24.4033C280.15 23.9096 280.066 23.4198 279.967 22.9458C279.926 22.7438 280.056 22.5442 280.263 22.5024C280.469 22.4638 280.666 22.5926 280.709 22.7988C280.81 23.2908 280.897 23.7997 280.964 24.3083C280.993 24.5132 280.845 24.7031 280.639 24.7311C280.579 24.7388 280.521 24.7327 280.467 24.714L280.465 24.7097ZM248.654 13.4837C248.603 13.4661 248.553 13.4347 248.513 13.396C248.167 13.0565 247.794 12.7325 247.411 12.4296C247.245 12.3012 247.216 12.0645 247.348 11.9009C247.476 11.7362 247.714 11.7086 247.879 11.8401C248.289 12.1593 248.679 12.5036 249.047 12.8615C249.196 13.0086 249.199 13.2472 249.053 13.3915C248.949 13.4972 248.795 13.5291 248.661 13.4828L248.654 13.4837ZM251.537 14.3614C251.486 14.3438 251.436 14.3124 251.393 14.2726C251.244 14.1254 251.245 13.888 251.392 13.7405C251.752 13.3796 252.142 13.0361 252.55 12.7129C252.712 12.5847 252.952 12.6112 253.081 12.7761C253.21 12.9379 253.184 13.1771 253.019 13.3042C252.633 13.6065 252.266 13.9334 251.928 14.2734C251.823 14.379 251.671 14.4077 251.537 14.3614ZM242.046 10.1717C241.894 10.1188 241.786 9.97537 241.791 9.80691C241.795 9.59922 241.969 9.43617 242.178 9.44106C242.69 9.45527 243.22 9.53225 243.753 9.67076C243.959 9.72437 244.077 9.9284 244.025 10.1302C243.973 10.3319 243.767 10.4521 243.565 10.3996C243.087 10.2767 242.615 10.2089 242.16 10.1934C242.121 10.1939 242.081 10.1838 242.046 10.1717ZM246.282 11.6239C246.256 11.615 246.227 11.6051 246.205 11.5868C246.026 11.4753 245.843 11.3658 245.655 11.2615C245.407 11.1226 245.161 10.9985 244.922 10.8872C244.731 10.7999 244.648 10.5762 244.738 10.3876C244.828 10.1991 245.048 10.1193 245.239 10.2067C245.498 10.3246 245.759 10.4574 246.028 10.6072C246.228 10.719 246.42 10.8318 246.611 10.9509C246.787 11.0614 246.842 11.2932 246.73 11.4708C246.635 11.6222 246.45 11.6823 246.288 11.6261L246.282 11.6239ZM279.856 21.7625C279.744 21.7239 279.652 21.6315 279.615 21.5092C279.481 21.0336 279.325 20.5577 279.156 20.1061C279.085 19.9112 279.185 19.6941 279.381 19.6236C279.576 19.5531 279.791 19.6524 279.866 19.8484C280.041 20.3203 280.203 20.8121 280.344 21.3111C280.399 21.5111 280.284 21.7194 280.083 21.774C280.004 21.7963 279.928 21.791 279.858 21.7668L279.856 21.7625ZM253.894 12.4976C253.814 12.47 253.746 12.4182 253.698 12.3413C253.588 12.1649 253.639 11.9346 253.814 11.8213C254.246 11.5526 254.698 11.2978 255.165 11.0698C255.353 10.979 255.577 11.053 255.672 11.2418C255.764 11.4296 255.69 11.6554 255.501 11.7462C255.058 11.965 254.626 12.2052 254.22 12.4616C254.119 12.526 253.999 12.5339 253.894 12.4976ZM278.801 18.9407C278.708 18.9088 278.628 18.842 278.583 18.7449C278.371 18.2959 278.138 17.8572 277.892 17.4458C277.786 17.2674 277.845 17.0361 278.024 16.9314C278.204 16.8235 278.435 16.886 278.541 17.0644C278.798 17.4971 279.041 17.9571 279.263 18.4275C279.352 18.6142 279.271 18.8378 279.083 18.9286C278.99 18.9708 278.889 18.9748 278.799 18.9439L278.801 18.9407ZM256.593 11.1672C256.491 11.1319 256.405 11.0523 256.363 10.9457C256.288 10.7497 256.387 10.5359 256.581 10.4611C257.057 10.2819 257.55 10.1231 258.05 9.98771C258.25 9.93314 258.459 10.0514 258.514 10.2514C258.57 10.4514 258.452 10.6587 258.251 10.7132C257.775 10.8426 257.302 10.9942 256.848 11.1631C256.761 11.1969 256.673 11.1947 256.59 11.1661L256.593 11.1672ZM259.503 10.3812C259.379 10.3382 259.278 10.2287 259.254 10.0927C259.218 9.88873 259.353 9.69443 259.558 9.65582C260.052 9.56804 260.564 9.50064 261.086 9.45458C261.295 9.43827 261.478 9.59014 261.496 9.79495C261.516 10.004 261.361 10.1843 261.155 10.2048C260.654 10.2512 260.161 10.3146 259.69 10.3995C259.625 10.4124 259.56 10.4041 259.499 10.3832L259.503 10.3812ZM277.259 16.351C277.189 16.3268 277.125 16.2835 277.077 16.2172C276.786 15.8222 276.472 15.4407 276.142 15.0855C276.002 14.9342 276.011 14.6926 276.166 14.5548C276.318 14.4126 276.557 14.4243 276.699 14.5799C277.047 14.9554 277.378 15.3573 277.683 15.7747C277.807 15.9417 277.771 16.1776 277.601 16.2994C277.496 16.3764 277.367 16.3885 277.255 16.3499L277.259 16.351ZM262.506 10.1126C262.359 10.0619 262.253 9.92582 262.249 9.76149C262.246 9.55476 262.412 9.38524 262.624 9.38064C263.127 9.37778 263.643 9.38995 264.163 9.4244C264.368 9.43878 264.53 9.619 264.517 9.82338C264.505 10.032 264.324 10.1854 264.117 10.1742C263.619 10.14 263.121 10.1271 262.637 10.1334C262.595 10.1328 262.55 10.128 262.509 10.1137L262.506 10.1126ZM275.219 14.1384C275.174 14.1229 275.133 14.098 275.094 14.0667C274.723 13.747 274.331 13.4482 273.93 13.1747C273.757 13.058 273.713 12.8231 273.83 12.6509C273.947 12.4786 274.183 12.4361 274.356 12.5529C274.78 12.8415 275.194 13.1587 275.587 13.4967C275.747 13.6334 275.765 13.87 275.628 14.0283C275.522 14.1477 275.359 14.1869 275.219 14.1384ZM265.516 10.3041C265.35 10.2468 265.241 10.0778 265.264 9.89795C265.293 9.69165 265.482 9.54788 265.689 9.57713C266.183 9.64515 266.689 9.7282 267.202 9.83147C267.405 9.87338 267.54 10.0691 267.498 10.2742C267.455 10.4793 267.26 10.6102 267.054 10.5672C266.557 10.4694 266.069 10.3856 265.588 10.322C265.561 10.3195 265.538 10.3118 265.516 10.3041ZM272.728 12.4465C272.709 12.4399 272.693 12.4344 272.675 12.4246C272.249 12.2027 271.8 11.9975 271.34 11.8208C271.145 11.7461 271.05 11.5254 271.124 11.3345C271.198 11.1405 271.412 11.0479 271.611 11.1205C272.098 11.3104 272.573 11.5244 273.025 11.7626C273.21 11.8583 273.281 12.085 273.184 12.2713C273.099 12.4366 272.902 12.5103 272.727 12.4497L272.728 12.4465ZM268.477 10.8966C268.292 10.8327 268.185 10.6363 268.234 10.444C268.286 10.2423 268.495 10.1231 268.693 10.1777C269.177 10.306 269.666 10.4471 270.163 10.6085C270.374 10.6992 270.47 10.8849 270.408 11.0834C270.344 11.2807 270.132 11.3882 269.932 11.3262C269.448 11.1692 268.971 11.0325 268.502 10.9055C268.493 10.9021 268.483 10.8988 268.473 10.8955L268.477 10.8966Z" fill="#1E1F24" fill-opacity="0.67"/>
<path d="M312.545 159.883H312.535C311.755 159.863 310.98 159.784 310.229 159.644C309.926 159.585 309.727 159.297 309.787 158.993C309.846 158.69 310.13 158.491 310.438 158.551C311.129 158.68 311.844 158.755 312.56 158.77C312.868 158.775 313.112 159.033 313.107 159.341C313.102 159.644 312.853 159.888 312.55 159.888L312.545 159.883ZM314.767 159.754C314.493 159.754 314.255 159.55 314.215 159.272C314.17 158.968 314.384 158.685 314.687 158.64C315.393 158.541 316.099 158.387 316.78 158.178C317.073 158.084 317.386 158.253 317.475 158.546C317.565 158.839 317.401 159.152 317.108 159.242C316.372 159.47 315.612 159.639 314.846 159.744C314.821 159.744 314.792 159.749 314.767 159.749V159.754ZM308.181 159.053C308.117 159.053 308.052 159.043 307.988 159.018C307.257 158.745 306.551 158.402 305.89 158.004C305.627 157.845 305.542 157.502 305.701 157.239C305.86 156.975 306.203 156.891 306.467 157.05C307.068 157.413 307.709 157.721 308.38 157.974C308.668 158.084 308.813 158.402 308.708 158.69C308.624 158.914 308.41 159.053 308.186 159.053H308.181ZM319.016 158.452C318.807 158.452 318.609 158.337 318.514 158.138C318.38 157.86 318.494 157.527 318.773 157.393C319.414 157.08 320.035 156.717 320.626 156.31C320.88 156.136 321.228 156.2 321.402 156.454C321.576 156.707 321.511 157.055 321.258 157.229C320.621 157.666 319.95 158.059 319.26 158.392C319.18 158.432 319.096 158.447 319.016 158.447V158.452ZM304.384 156.762C304.25 156.762 304.116 156.717 304.012 156.618C303.43 156.096 302.903 155.514 302.441 154.888C302.257 154.64 302.307 154.292 302.555 154.108C302.804 153.924 303.152 153.974 303.336 154.222C303.753 154.789 304.235 155.311 304.762 155.788C304.991 155.991 305.011 156.344 304.802 156.573C304.692 156.697 304.538 156.757 304.389 156.757L304.384 156.762ZM322.679 155.937C322.53 155.937 322.381 155.877 322.271 155.758C322.063 155.534 322.073 155.181 322.301 154.968C322.823 154.486 323.315 153.954 323.772 153.397C323.966 153.159 324.319 153.124 324.558 153.318C324.796 153.511 324.831 153.864 324.637 154.103C324.15 154.699 323.618 155.266 323.062 155.783C322.952 155.882 322.818 155.932 322.684 155.932L322.679 155.937ZM301.75 153.208C301.541 153.208 301.338 153.089 301.243 152.89C300.915 152.194 300.652 151.454 300.458 150.693C300.383 150.395 300.562 150.092 300.861 150.017C301.154 149.938 301.462 150.122 301.537 150.42C301.71 151.116 301.954 151.787 302.247 152.418C302.376 152.696 302.257 153.029 301.979 153.159C301.904 153.193 301.82 153.213 301.74 153.213L301.75 153.208ZM325.502 152.498C325.403 152.498 325.298 152.473 325.209 152.413C324.945 152.249 324.871 151.906 325.03 151.643C325.403 151.046 325.755 150.405 326.068 149.744C326.203 149.466 326.536 149.347 326.814 149.481C327.092 149.615 327.212 149.948 327.077 150.226C326.744 150.922 326.372 151.603 325.974 152.234C325.87 152.403 325.686 152.498 325.502 152.498ZM300.642 148.914C300.354 148.914 300.11 148.69 300.085 148.402C300.055 148.024 300.041 147.642 300.041 147.249C300.041 146.941 300.289 146.693 300.597 146.693C300.905 146.693 301.154 146.941 301.154 147.249C301.154 147.612 301.169 147.97 301.194 148.318C301.218 148.626 300.99 148.894 300.682 148.919C300.667 148.919 300.652 148.919 300.637 148.919L300.642 148.914ZM327.42 148.482C327.361 148.482 327.296 148.472 327.236 148.452C326.943 148.353 326.794 148.034 326.894 147.741C327.137 147.045 327.331 146.35 327.475 145.664C327.54 145.361 327.843 145.167 328.136 145.231C328.439 145.296 328.628 145.589 328.568 145.892C328.414 146.623 328.206 147.368 327.947 148.109C327.868 148.338 327.649 148.482 327.42 148.482ZM328.32 144.128C328.32 144.128 328.3 144.128 328.29 144.128C327.982 144.113 327.748 143.85 327.763 143.542C327.778 143.308 327.783 143.074 327.783 142.846C327.783 142.364 327.753 141.882 327.699 141.409C327.664 141.106 327.883 140.828 328.186 140.793C328.489 140.748 328.767 140.977 328.807 141.28C328.867 141.792 328.901 142.319 328.901 142.846C328.901 143.094 328.896 143.348 328.882 143.601C328.867 143.899 328.618 144.128 328.325 144.128H328.32ZM327.783 139.73C327.545 139.73 327.326 139.575 327.251 139.342C327.038 138.671 326.764 138.015 326.426 137.389C326.282 137.115 326.382 136.782 326.655 136.633C326.923 136.489 327.266 136.589 327.41 136.862C327.778 137.548 328.086 138.273 328.315 139.009C328.409 139.302 328.245 139.615 327.952 139.71C327.897 139.73 327.838 139.735 327.783 139.735V139.73ZM316.998 135.967C316.422 135.942 315.9 135.913 315.433 135.793C315.134 135.719 314.956 135.416 315.03 135.117C315.105 134.819 315.403 134.63 315.706 134.715C316.084 134.809 316.521 134.849 316.998 134.854C317.232 134.854 317.475 134.839 317.729 134.814C318.037 134.779 318.31 135.008 318.34 135.311C318.37 135.614 318.146 135.893 317.843 135.923C317.555 135.952 317.272 135.967 317.003 135.967H316.998ZM325.686 135.818C325.522 135.818 325.358 135.749 325.248 135.609C324.806 135.063 324.314 134.541 323.777 134.064C323.588 133.9 323.539 133.631 323.638 133.418C323.583 133.378 323.534 133.328 323.499 133.274C323.325 133.02 323.395 132.672 323.653 132.498C324.24 132.106 324.816 131.663 325.363 131.186C325.591 130.982 325.944 131.007 326.148 131.241C326.352 131.474 326.327 131.822 326.093 132.026C325.591 132.463 325.07 132.871 324.533 133.244C325.109 133.756 325.646 134.317 326.118 134.909C326.312 135.147 326.272 135.5 326.034 135.694C325.929 135.778 325.81 135.818 325.686 135.818ZM319.965 135.47C319.727 135.47 319.508 135.316 319.434 135.078C319.344 134.784 319.508 134.471 319.801 134.382C320.462 134.178 321.128 133.91 321.789 133.587C322.068 133.452 322.401 133.567 322.535 133.84C322.669 134.118 322.555 134.451 322.281 134.586C321.571 134.933 320.845 135.222 320.129 135.445C320.075 135.465 320.02 135.47 319.965 135.47ZM313.837 134.536C313.619 134.536 313.41 134.402 313.32 134.188C313.211 133.915 313.156 133.621 313.156 133.313C313.156 132.891 313.261 132.434 313.474 131.961C313.539 131.812 313.619 131.673 313.703 131.544C313.872 131.285 314.22 131.216 314.473 131.385C314.732 131.554 314.801 131.902 314.633 132.155C314.578 132.235 314.533 132.319 314.493 132.409C314.349 132.737 314.275 133.04 314.275 133.308C314.275 133.472 314.304 133.626 314.359 133.766C314.473 134.049 314.334 134.377 314.051 134.491C313.981 134.516 313.912 134.531 313.842 134.531L313.837 134.536ZM322.361 132.876C322.261 132.876 322.157 132.851 322.068 132.791C321.451 132.409 320.815 132.086 320.169 131.827C319.881 131.713 319.742 131.39 319.856 131.102C319.97 130.818 320.293 130.679 320.582 130.793C321.287 131.077 321.983 131.43 322.654 131.847C322.917 132.011 322.997 132.354 322.833 132.613C322.729 132.781 322.545 132.876 322.361 132.876ZM316.014 131.266C315.756 131.266 315.522 131.087 315.467 130.823C315.403 130.52 315.597 130.227 315.9 130.162C316.611 130.013 317.436 130.008 318.32 130.152C318.623 130.202 318.832 130.485 318.782 130.793C318.733 131.097 318.449 131.3 318.141 131.256C317.396 131.136 316.7 131.136 316.124 131.256C316.084 131.266 316.049 131.266 316.009 131.266H316.014ZM327.321 130.605C327.187 130.605 327.053 130.555 326.948 130.46C326.72 130.252 326.705 129.899 326.908 129.675C327.386 129.153 327.843 128.587 328.27 127.99C328.449 127.742 328.797 127.687 329.05 127.866C329.299 128.045 329.354 128.393 329.175 128.646C328.722 129.273 328.235 129.874 327.733 130.426C327.624 130.55 327.47 130.61 327.321 130.61V130.605ZM329.935 127.001C329.841 127.001 329.746 126.977 329.657 126.927C329.388 126.773 329.299 126.43 329.453 126.166L329.667 125.789C329.945 125.287 330.184 124.765 330.378 124.243C330.487 123.955 330.81 123.806 331.098 123.915C331.386 124.024 331.531 124.342 331.426 124.631C331.212 125.202 330.949 125.769 330.646 126.32L330.422 126.718C330.318 126.897 330.129 126.996 329.94 126.996L329.935 127.001ZM331.481 122.841C331.451 122.841 331.421 122.841 331.386 122.832C331.083 122.782 330.879 122.494 330.929 122.19C331.029 121.589 331.083 120.973 331.083 120.356V120.073C331.073 119.765 331.317 119.512 331.625 119.502C331.973 119.502 332.187 119.74 332.197 120.048V120.351C332.197 121.032 332.142 121.708 332.032 122.374C331.988 122.648 331.749 122.841 331.481 122.841ZM331.381 118.408C331.123 118.408 330.889 118.224 330.835 117.961C330.696 117.28 330.492 116.589 330.238 115.908C330.129 115.62 330.273 115.297 330.561 115.193C330.85 115.078 331.173 115.227 331.282 115.521C331.56 116.256 331.774 117.002 331.928 117.742C331.988 118.045 331.794 118.339 331.496 118.398C331.456 118.408 331.421 118.408 331.381 118.408ZM329.831 114.243C329.632 114.243 329.443 114.139 329.339 113.95C329.001 113.329 328.613 112.713 328.191 112.116C328.012 111.868 328.071 111.515 328.32 111.341C328.568 111.162 328.921 111.222 329.095 111.47C329.548 112.101 329.955 112.757 330.313 113.418C330.462 113.687 330.358 114.025 330.089 114.174C330.005 114.218 329.915 114.243 329.826 114.243H329.831ZM327.251 110.62C327.097 110.62 326.948 110.561 326.839 110.436C326.491 110.049 326.128 109.676 325.75 109.323C325.74 109.323 325.731 109.333 325.721 109.333C324.995 109.557 324.225 109.716 323.429 109.795C323.116 109.83 322.848 109.606 322.818 109.298C322.788 108.99 323.007 108.717 323.315 108.687C323.941 108.622 324.553 108.503 325.134 108.344C325.154 108.264 325.194 108.19 325.253 108.125C325.457 107.897 325.81 107.872 326.039 108.081C326.605 108.582 327.152 109.129 327.664 109.696C327.873 109.924 327.853 110.277 327.624 110.481C327.52 110.575 327.386 110.625 327.251 110.625V110.62ZM321.143 109.83C321.143 109.83 321.118 109.83 321.103 109.83C320.303 109.77 319.528 109.641 318.802 109.442C318.504 109.363 318.33 109.055 318.41 108.756C318.489 108.458 318.797 108.284 319.096 108.364C319.757 108.543 320.457 108.657 321.188 108.712C321.496 108.737 321.725 109.005 321.705 109.308C321.685 109.601 321.436 109.825 321.148 109.825L321.143 109.83ZM316.889 108.607C316.785 108.607 316.685 108.578 316.591 108.518C315.487 107.817 315.254 107.101 315.254 106.629C315.254 106.43 315.294 106.237 315.373 106.053C315.492 105.769 315.82 105.635 316.104 105.755C316.387 105.874 316.521 106.202 316.402 106.485C316.382 106.535 316.372 106.585 316.372 106.634C316.372 106.903 316.68 107.256 317.192 107.584C317.45 107.748 317.53 108.095 317.366 108.354C317.262 108.523 317.078 108.612 316.894 108.612L316.889 108.607ZM327.594 108.468C327.4 108.468 327.217 108.369 327.112 108.19C326.958 107.921 327.048 107.584 327.316 107.429C327.927 107.077 328.484 106.654 328.986 106.172C329.21 105.958 329.562 105.963 329.776 106.187C329.99 106.406 329.985 106.758 329.761 106.977C329.2 107.524 328.563 108.001 327.878 108.399C327.788 108.448 327.694 108.473 327.599 108.473L327.594 108.468ZM323.916 107.668C323.807 107.668 323.698 107.638 323.598 107.569C322.982 107.141 322.361 106.773 321.75 106.475C321.471 106.341 321.357 106.008 321.496 105.73C321.63 105.451 321.963 105.342 322.242 105.476C322.898 105.799 323.569 106.192 324.235 106.654C324.488 106.828 324.553 107.176 324.379 107.429C324.269 107.588 324.095 107.668 323.921 107.668H323.916ZM319.906 105.76C319.861 105.76 319.821 105.76 319.776 105.745C319.041 105.571 318.37 105.531 317.798 105.64C317.495 105.695 317.202 105.501 317.147 105.198C317.088 104.895 317.286 104.601 317.59 104.547C318.315 104.408 319.14 104.447 320.035 104.661C320.333 104.731 320.517 105.034 320.447 105.332C320.388 105.586 320.159 105.76 319.906 105.76ZM330.77 105.402C330.671 105.402 330.566 105.377 330.472 105.317C330.213 105.153 330.134 104.81 330.298 104.547C330.661 103.97 330.974 103.334 331.227 102.653C331.332 102.365 331.655 102.216 331.943 102.325C332.231 102.43 332.38 102.753 332.271 103.041C331.993 103.796 331.645 104.502 331.242 105.143C331.138 105.312 330.954 105.402 330.77 105.402ZM332.38 101.267C332.341 101.267 332.301 101.267 332.261 101.252C331.958 101.187 331.769 100.889 331.839 100.586C331.998 99.8601 332.097 99.1494 332.127 98.4735C332.142 98.1653 332.435 97.9069 332.708 97.9417C333.017 97.9566 333.255 98.215 333.24 98.5232C333.205 99.2637 333.101 100.034 332.927 100.824C332.867 101.083 332.639 101.262 332.385 101.262L332.38 101.267ZM332.539 96.8383C332.276 96.8383 332.037 96.6495 331.993 96.3811C331.869 95.6903 331.66 95.0243 331.372 94.3981C331.242 94.1197 331.362 93.7868 331.645 93.6575C331.923 93.5234 332.256 93.6476 332.385 93.9259C332.713 94.6366 332.952 95.3921 333.096 96.1823C333.151 96.4855 332.947 96.7737 332.644 96.8284C332.609 96.8334 332.579 96.8383 332.544 96.8383H332.539ZM330.686 92.8425C330.527 92.8425 330.363 92.7729 330.253 92.6387C329.821 92.1168 329.314 91.6248 328.737 91.1775C328.494 90.9886 328.449 90.6358 328.643 90.3922C328.832 90.1487 329.18 90.104 329.423 90.2928C330.059 90.7898 330.626 91.3415 331.113 91.923C331.307 92.1616 331.277 92.5144 331.038 92.7083C330.934 92.7927 330.81 92.8375 330.686 92.8375V92.8425ZM327.202 90.0941C327.117 90.0941 327.028 90.0742 326.948 90.0344C325.85 89.4629 325 89.2342 324.995 89.2342C324.697 89.1547 324.518 88.8515 324.597 88.5533C324.677 88.2551 324.985 88.0762 325.278 88.1557C325.318 88.1657 326.247 88.4142 327.465 89.0454C327.738 89.1895 327.843 89.5225 327.704 89.7958C327.604 89.9847 327.41 90.0941 327.207 90.0941H327.202Z" fill="#1E1F24" fill-opacity="0.67"/>
<path d="M123.006 30.6729C123.006 30.6729 138.991 -4.16415 145.85 0.414857C152.71 4.98928 162.564 33.6401 162.564 33.6401C162.564 33.6401 197.474 47.0108 200.615 45.6051C203.761 44.1993 224.77 19.9535 227.851 24.3264C232.856 31.4239 234.807 60.2579 234.807 60.2579C234.807 60.2579 240.215 82.3012 240.737 92.1919C241.717 110.691 169.364 148.733 133.973 129.941C104.282 114.176 87.9856 67.9414 92.8164 59.3192C97.6473 50.6969 123.001 30.6729 123.001 30.6729H123.006Z" fill="#FAAF3E"/>
<path d="M91.8872 65.2307C91.8872 65.2307 110.808 35.513 120.24 80.8131C123.803 97.9157 121.142 63.3762 145.832 68.8298C167.977 73.7202 156.451 112.326 174.438 98.543C214.028 68.2071 223.74 113.113 222.526 113.988C215.891 118.768 190.377 142.79 146.822 134.447C108.097 127.029 92.0292 78.0382 91.8918 65.2353L91.8872 65.2307Z" fill="#F1E5D5"/>
<path d="M156.208 34.1758C156.208 34.1758 144.912 11.4182 143.653 9.8659C140.53 6.02411 127.091 30.2058 129.485 30.0135C131.876 29.8258 156.208 34.1713 156.208 34.1713V34.1758Z" fill="#FFBDA1"/>
<path d="M145.74 33.5623C145.676 33.5623 145.612 33.5532 145.548 33.5394C143.616 33.1182 138.964 26.7259 138.052 25.4483C137.887 25.2148 137.942 24.8943 138.171 24.7294C138.4 24.5646 138.721 24.6195 138.886 24.8485C140.855 27.6051 144.367 32.0238 145.663 32.5046C146.212 31.5338 145.635 25.5308 144.751 20.3244C144.706 20.0451 144.893 19.7795 145.173 19.7337C145.452 19.6834 145.718 19.8757 145.763 20.155C146.23 22.9207 147.654 32.0421 146.317 33.3197C146.153 33.4799 145.951 33.5623 145.731 33.5623H145.74Z" fill="#342E2E"/>
<path d="M207.205 46.4614C207.205 46.4614 226.409 54.9233 226.913 54.0259C227.417 53.1284 226.693 32.7014 224.097 32.4267C221.501 32.152 207.205 46.4614 207.205 46.4614Z" fill="#FFBDA1"/>
<path d="M214.632 51.164C214.174 51.164 213.968 50.8801 213.904 50.7519C213.272 49.5705 216.486 45.0006 219.293 41.3741C219.467 41.1497 219.788 41.1085 220.012 41.2825C220.236 41.4565 220.278 41.777 220.104 42.0014C217.649 45.1701 215.076 48.9981 214.838 50.12C217.054 49.9506 223.313 49.2133 223.382 49.2042C223.661 49.1767 223.918 49.3736 223.955 49.6529C223.987 49.9368 223.785 50.1887 223.506 50.2253C223.231 50.2573 216.724 51.022 214.714 51.1594C214.687 51.1594 214.659 51.1594 214.636 51.1594L214.632 51.164Z" fill="#342E2E"/>
<path d="M137.132 43.3155C137.132 43.3155 143.451 48.9843 141.798 53.4488C140.15 57.9134 128.574 47.2672 127.81 44.964C127.049 42.6607 134.413 40.243 137.128 43.3155H137.132Z" fill="#F1E5D5"/>
<path d="M186.375 57.0251C186.375 57.0251 177.94 57.9638 176.685 62.5565C175.431 67.1493 191.041 65.2169 193 63.7883C194.96 62.3596 190.372 56.1093 186.375 57.0251Z" fill="#F1E5D5"/>
<path d="M129.994 67.534C129.737 67.534 129.513 67.3371 129.485 67.076C128.799 60.8761 127.049 57.0114 124.435 55.9033C121.619 54.7036 118.619 56.9793 118.587 57.0068C118.363 57.1762 118.042 57.135 117.868 56.9152C117.694 56.6909 117.736 56.3658 117.96 56.1918C118.102 56.0819 121.472 53.5268 124.833 54.96C127.855 56.2421 129.76 60.2854 130.502 66.9707C130.534 67.2546 130.328 67.5065 130.049 67.5385C130.03 67.5385 130.012 67.5385 129.994 67.5385V67.534Z" fill="#342E2E"/>
<path d="M164.217 80.7718C164.089 80.7718 163.965 80.726 163.865 80.6345C163.658 80.4376 163.645 80.1125 163.842 79.9064C168.498 74.9336 173.343 72.3465 178.238 72.2091C184.195 72.0168 188.037 75.6159 188.193 75.767C188.399 75.9639 188.403 76.289 188.211 76.4905C188.014 76.6965 187.689 76.7011 187.483 76.5088C187.446 76.4722 183.783 73.1112 178.247 73.2348C173.641 73.3676 169.043 75.8494 164.588 80.607C164.487 80.7169 164.35 80.7673 164.213 80.7673L164.217 80.7718Z" fill="#342E2E"/>
<path d="M192.282 111.877C196.985 111.877 200.799 108.064 200.799 103.36C200.799 98.6562 196.985 94.8431 192.282 94.8431C187.578 94.8431 183.765 98.6562 183.765 103.36C183.765 108.064 187.578 111.877 192.282 111.877Z" fill="#FFA077"/>
<path d="M104.63 78.2213C108.317 78.2213 111.306 75.2323 111.306 71.5451C111.306 67.8579 108.317 64.8689 104.63 64.8689C100.943 64.8689 97.9541 67.8579 97.9541 71.5451C97.9541 75.2323 100.943 78.2213 104.63 78.2213Z" fill="#FFA077"/>
<path d="M158.736 43.0271C158.489 43.0271 158.269 42.8485 158.228 42.5966C158.04 41.4519 158.228 40.5498 158.786 39.9225C159.56 39.0479 160.751 39.0799 160.801 39.0845C161.085 39.0983 161.305 39.3364 161.296 39.6203C161.286 39.9042 161.053 40.124 160.764 40.1148C160.746 40.1148 159.995 40.1011 159.551 40.6139C159.212 40.9986 159.111 41.6121 159.244 42.4364C159.29 42.7157 159.098 42.9813 158.818 43.0271C158.791 43.0316 158.763 43.0362 158.736 43.0362V43.0271Z" fill="#342E2E"/>
<path d="M165.646 52.1072C165.504 52.1072 165.366 52.0523 165.266 51.9378C164.487 51.077 164.153 50.2207 164.277 49.3919C164.451 48.2334 165.467 47.6198 165.513 47.5924C165.756 47.4458 166.072 47.5283 166.218 47.7709C166.365 48.0136 166.282 48.325 166.039 48.4715C166.03 48.4761 165.389 48.8791 165.293 49.5476C165.22 50.0559 165.467 50.6236 166.026 51.2418C166.218 51.4524 166.2 51.7776 165.989 51.9653C165.893 52.0569 165.769 52.0981 165.646 52.0981V52.1072Z" fill="#342E2E"/>
<path d="M168.457 46.3514C168.283 46.3514 168.109 46.2598 168.013 46.0995C167.422 45.1013 167.271 44.1946 167.564 43.4071C167.967 42.3081 169.094 41.9097 169.139 41.896C169.405 41.8044 169.698 41.9464 169.794 42.2119C169.89 42.4775 169.744 42.7706 169.478 42.8622C169.469 42.8622 168.759 43.1278 168.526 43.7642C168.352 44.245 168.475 44.854 168.901 45.5729C169.043 45.8156 168.965 46.1316 168.718 46.2781C168.636 46.3285 168.549 46.3514 168.457 46.3514Z" fill="#342E2E"/>
<path d="M173.229 45.1151C173.055 45.1151 172.881 45.0235 172.784 44.8632C172.194 43.865 172.043 42.9584 172.336 42.1708C172.739 41.0718 173.865 40.6735 173.911 40.6597C174.181 40.5681 174.469 40.7101 174.566 40.9757C174.662 41.2413 174.515 41.5343 174.25 41.6259C174.24 41.6259 173.531 41.8915 173.297 42.528C173.123 43.0088 173.247 43.6178 173.673 44.3367C173.815 44.5794 173.737 44.8953 173.49 45.0418C173.407 45.0922 173.32 45.1151 173.229 45.1151Z" fill="#342E2E"/>
<path d="M170.504 49.5841C170.293 49.5841 170.096 49.4559 170.023 49.2453C169.625 48.1555 169.643 47.2351 170.073 46.5162C170.673 45.5089 171.845 45.3257 171.896 45.3165C172.18 45.2753 172.436 45.4676 172.482 45.7469C172.528 46.0263 172.331 46.2873 172.051 46.3331C172.051 46.3331 171.296 46.4613 170.952 47.0474C170.691 47.487 170.705 48.1097 170.989 48.8927C171.085 49.1583 170.948 49.456 170.682 49.5521C170.623 49.575 170.563 49.5841 170.508 49.5841H170.504Z" fill="#342E2E"/>
<path d="M161.785 47.6427C161.648 47.6427 161.511 47.5878 161.41 47.4779C160.618 46.6308 160.274 45.779 160.384 44.9457C160.54 43.7872 161.552 43.1553 161.593 43.1278C161.831 42.9767 162.152 43.0545 162.298 43.2972C162.445 43.5399 162.372 43.8513 162.133 44.0024C162.115 44.0116 161.488 44.4237 161.401 45.0922C161.337 45.6005 161.589 46.1683 162.161 46.7773C162.353 46.9833 162.344 47.3084 162.138 47.5008C162.037 47.5923 161.914 47.6381 161.785 47.6381V47.6427Z" fill="#342E2E"/>
<path d="M165.142 42.1891C164.894 42.1891 164.675 42.0106 164.633 41.7587C164.446 40.614 164.633 39.7119 165.192 39.0846C165.966 38.21 167.152 38.2466 167.207 38.2466C167.491 38.2604 167.711 38.4985 167.701 38.7824C167.692 39.0663 167.459 39.2861 167.17 39.2769C167.147 39.2769 166.401 39.2631 165.957 39.776C165.618 40.1606 165.517 40.7742 165.65 41.5984C165.696 41.8777 165.503 42.1433 165.224 42.1891C165.197 42.1937 165.169 42.1983 165.142 42.1983V42.1891Z" fill="#342E2E"/>
<path d="M129.201 95.8826C129.201 95.8826 118.413 106.845 126.289 118.315C133.309 128.535 137.421 107.184 139.82 101.19C139.82 101.19 133.657 103.415 132.114 102.559C130.571 101.702 129.201 95.878 129.201 95.878V95.8826Z" fill="#FFA077"/>
<path d="M150.498 79.4852C143.813 73.2761 132.036 73.5004 132.036 73.5004C129.517 72.9876 133.199 89.0416 135.571 92.2423L131.926 101.629C130.74 99.8205 129.334 93.7533 128.629 89.4765C128.583 89.1972 128.322 89.0049 128.038 89.0553C127.759 89.1011 127.571 89.3667 127.617 89.646C127.919 91.4684 129.389 99.8526 131.244 102.385C131.221 102.408 131.193 102.426 131.175 102.458C128.693 106.359 130.021 112.839 130.076 113.113C130.127 113.356 130.342 113.521 130.58 113.521C130.616 113.521 130.649 113.521 130.685 113.512C130.964 113.452 131.138 113.182 131.084 112.903C131.07 112.839 129.797 106.616 132.013 103.058C132.251 103.154 132.54 103.214 132.901 103.214C136.162 103.214 143.854 99.5595 145.535 98.7445C145.791 98.6208 145.897 98.3141 145.773 98.0576C145.649 97.8058 145.343 97.6959 145.086 97.8195C140.933 99.8389 134.774 102.344 132.814 102.211L136.464 92.8147C139.463 92.7277 152.435 81.2756 150.512 79.4852H150.498Z" fill="#342E2E"/>
<path d="M262.817 170.186C261.42 168.835 250.215 192.353 244.716 191.249C241.872 190.677 239.248 172.425 230.663 153.656C231.102 152.855 231.455 152.058 231.702 151.284C237.866 131.764 222.97 118.146 219.114 126.882C218.574 128.114 217.466 129.415 215.987 130.743C208.445 122.528 198.674 116.081 185.839 113.686C137.155 104.601 109.461 189.981 109.461 189.981C109.461 189.981 102.597 175.269 97.7114 170.433C92.8256 165.598 91.4198 200.142 101.695 203.512C111.97 206.882 246.561 216.402 258.622 202.093C270.683 187.783 264.213 171.537 262.817 170.186Z" fill="#FAAF3E"/>
<path d="M220.182 132.693C216.812 144.228 199.842 153.34 191.403 157.237C187.666 156.055 183.559 155.465 179.039 155.648C144.477 157.053 125.305 206.392 125.305 206.392C165.779 212.959 225.791 209.588 225.791 209.588C224.93 203.004 221.244 186.57 212.164 173.552C219.985 175.017 227.948 173.304 233.42 164.252C247.395 141.128 224.706 117.207 220.182 132.689V132.693Z" fill="#F1E5D5"/>
<path d="M186.306 193.53L181.082 189.111L184.337 184.459C184.498 184.225 184.443 183.905 184.209 183.744C183.976 183.58 183.655 183.639 183.495 183.868L180.29 188.447L176.283 185.059C176.068 184.875 175.743 184.903 175.559 185.118C175.376 185.333 175.404 185.658 175.619 185.842L179.699 189.294L176.301 194.148C176.141 194.381 176.196 194.702 176.429 194.862C176.521 194.926 176.622 194.954 176.722 194.954C176.883 194.954 177.043 194.876 177.144 194.734L180.486 189.958L185.638 194.317C185.734 194.4 185.853 194.441 185.967 194.441C186.114 194.441 186.261 194.377 186.361 194.258C186.544 194.043 186.517 193.717 186.302 193.534L186.306 193.53Z" fill="#342E2E"/>
<path d="M200.098 139.978C199.828 139.978 199.599 139.768 199.585 139.493C199.567 139.209 199.787 138.966 200.07 138.953C200.208 138.944 213.688 138.051 218.638 126.672C218.753 126.411 219.055 126.292 219.316 126.406C219.577 126.521 219.696 126.823 219.582 127.084C214.38 139.053 200.272 139.969 200.13 139.978C200.121 139.978 200.112 139.978 200.102 139.978H200.098Z" fill="#342E2E"/>
<path d="M123.853 169.751C123.661 169.751 123.478 169.641 123.391 169.458C123.368 169.412 122.846 168.29 123.373 167.288C123.725 166.615 124.43 166.184 125.47 166.006C125.744 165.955 126.015 166.147 126.06 166.427C126.106 166.706 125.918 166.972 125.639 167.017C124.934 167.137 124.476 167.384 124.284 167.759C124 168.304 124.316 169.009 124.32 169.014C124.444 169.27 124.334 169.577 124.078 169.701C124.004 169.733 123.931 169.751 123.858 169.751H123.853Z" fill="#342E2E"/>
<path d="M125.625 175.315C125.433 175.315 125.249 175.205 125.162 175.022C125.139 174.976 124.617 173.854 125.144 172.851C125.497 172.178 126.202 171.748 127.241 171.569C127.516 171.519 127.786 171.711 127.832 171.99C127.878 172.27 127.69 172.535 127.411 172.581C126.705 172.7 126.248 172.947 126.055 173.323C125.771 173.868 126.087 174.573 126.092 174.577C126.216 174.834 126.106 175.141 125.849 175.264C125.776 175.296 125.703 175.315 125.629 175.315H125.625Z" fill="#342E2E"/>
<path d="M127.832 170.255C127.64 170.255 127.457 170.15 127.37 169.962C127.347 169.916 126.825 168.794 127.352 167.791C127.704 167.118 128.409 166.688 129.449 166.509C129.723 166.459 129.994 166.651 130.039 166.931C130.085 167.21 129.897 167.475 129.618 167.521C128.918 167.64 128.46 167.888 128.263 168.258C127.974 168.803 128.295 169.513 128.299 169.522C128.418 169.779 128.309 170.086 128.052 170.205C127.983 170.237 127.906 170.255 127.832 170.255Z" fill="#342E2E"/>
<path d="M128.102 165.804C127.846 165.804 127.626 165.612 127.594 165.351C127.548 164.984 127.63 164.224 128.203 163.702C128.816 163.139 129.801 162.997 131.124 163.281C131.403 163.341 131.577 163.615 131.518 163.89C131.458 164.165 131.184 164.339 130.909 164.284C129.943 164.078 129.247 164.137 128.894 164.458C128.574 164.751 128.615 165.218 128.615 165.223C128.647 165.506 128.445 165.758 128.166 165.795C128.148 165.795 128.125 165.795 128.107 165.795L128.102 165.804Z" fill="#342E2E"/>
<path d="M122.283 176.331C122.132 176.331 121.98 176.267 121.88 176.139C121.843 176.093 120.982 174.999 121.179 173.735C121.294 173.007 121.724 172.389 122.457 171.899C122.69 171.738 123.011 171.807 123.171 172.041C123.327 172.274 123.263 172.595 123.029 172.755C122.539 173.085 122.264 173.456 122.196 173.895C122.072 174.701 122.681 175.493 122.686 175.498C122.864 175.718 122.828 176.043 122.603 176.221C122.507 176.295 122.397 176.336 122.283 176.336V176.331Z" fill="#342E2E"/>
<path d="M237.646 181.858C237.54 181.858 237.44 181.826 237.348 181.762C237.115 181.597 237.064 181.276 237.229 181.048C237.646 180.466 237.792 179.967 237.664 179.564C237.481 178.978 236.757 178.703 236.748 178.703C236.483 178.607 236.341 178.314 236.437 178.048C236.533 177.778 236.826 177.645 237.092 177.737C237.142 177.755 238.301 178.181 238.639 179.262C238.868 179.985 238.671 180.791 238.058 181.647C237.957 181.789 237.801 181.863 237.641 181.863L237.646 181.858Z" fill="#342E2E"/>
<path d="M232.462 179.17C232.361 179.17 232.256 179.138 232.165 179.074C231.931 178.909 231.881 178.589 232.045 178.36C232.462 177.778 232.609 177.279 232.48 176.876C232.297 176.29 231.574 176.015 231.565 176.015C231.299 175.919 231.157 175.626 231.253 175.36C231.349 175.09 231.643 174.957 231.908 175.049C231.958 175.067 233.117 175.493 233.456 176.569C233.685 177.293 233.488 178.099 232.874 178.96C232.774 179.101 232.618 179.175 232.458 179.175L232.462 179.17Z" fill="#342E2E"/>
<path d="M234.468 184.312C234.367 184.312 234.262 184.28 234.17 184.216C233.937 184.051 233.886 183.731 234.051 183.502C234.468 182.92 234.615 182.421 234.486 182.018C234.303 181.432 233.58 181.157 233.571 181.157C233.305 181.061 233.163 180.768 233.259 180.503C233.355 180.232 233.648 180.1 233.914 180.191C233.964 180.21 235.123 180.635 235.462 181.711C235.691 182.435 235.494 183.241 234.88 184.102C234.779 184.244 234.624 184.317 234.463 184.317L234.468 184.312Z" fill="#342E2E"/>
<path d="M235.709 187.646C235.539 187.646 235.374 187.563 235.278 187.412C235.123 187.174 235.191 186.858 235.429 186.703C236.258 186.167 236.712 185.631 236.73 185.155C236.748 184.72 236.391 184.418 236.386 184.413C236.162 184.239 236.125 183.914 236.299 183.69C236.473 183.47 236.799 183.429 237.023 183.603C237.311 183.832 237.792 184.422 237.756 185.196C237.719 186.03 237.124 186.822 235.983 187.559C235.896 187.614 235.8 187.641 235.704 187.641L235.709 187.646Z" fill="#342E2E"/>
<path d="M235.53 175.754C235.498 175.754 235.462 175.754 235.43 175.745C235.15 175.69 234.972 175.42 235.027 175.141C235.141 174.564 235.072 174.106 234.807 173.749C234.326 173.089 233.337 172.961 233.328 172.961C233.044 172.929 232.842 172.677 232.874 172.393C232.906 172.109 233.158 171.912 233.442 171.94C233.502 171.949 234.885 172.114 235.636 173.144C236.071 173.739 236.203 174.481 236.029 175.347C235.979 175.589 235.764 175.759 235.526 175.759L235.53 175.754Z" fill="#342E2E"/>
<path d="M98.1236 178.254C98.0962 178.254 98.0687 178.254 98.0366 178.245C97.7573 178.199 97.5696 177.934 97.6154 177.654C98.3389 173.327 95.9669 170.662 95.944 170.635C95.7517 170.424 95.77 170.099 95.9807 169.911C96.1913 169.723 96.5164 169.733 96.7088 169.948C96.8186 170.072 99.4332 173.011 98.6319 177.828C98.5907 178.08 98.3709 178.259 98.1236 178.259V178.254Z" fill="#342E2E"/>
<path d="M100.949 180.054C100.798 180.054 100.647 179.99 100.546 179.861C100.367 179.642 100.404 179.317 100.628 179.138C101.15 178.721 100.358 175.402 98.9342 172.031C98.8243 171.77 98.9479 171.468 99.2089 171.358C99.4699 171.248 99.7721 171.372 99.882 171.633C100.775 173.749 102.703 178.795 101.269 179.939C101.173 180.013 101.063 180.054 100.949 180.054Z" fill="#342E2E"/>
<path d="M259.95 183.905C259.666 183.905 259.438 183.676 259.438 183.392C259.438 180.727 262.451 174.925 262.579 174.678C262.712 174.426 263.018 174.33 263.27 174.458C263.522 174.591 263.618 174.898 263.49 175.15C263.458 175.209 260.468 180.974 260.468 183.387C260.468 183.671 260.239 183.9 259.955 183.9L259.95 183.905Z" fill="#342E2E"/>
<path d="M257.899 183.135C257.633 183.135 257.409 182.934 257.386 182.664C257.116 179.422 260.921 174.307 261.081 174.092C261.25 173.868 261.571 173.817 261.8 173.987C262.029 174.156 262.075 174.481 261.901 174.705C261.864 174.756 258.169 179.724 258.407 182.572C258.43 182.856 258.219 183.103 257.94 183.126C257.926 183.126 257.912 183.126 257.899 183.126V183.135Z" fill="#342E2E"/>
<path d="M145.974 81.0373C145.86 81.0373 145.745 81.0007 145.649 80.9229C143.886 79.4851 137.815 77.4016 137.755 77.3787C137.485 77.2871 137.343 76.9941 137.435 76.7285C137.526 76.4583 137.819 76.3164 138.085 76.408C138.341 76.495 144.395 78.5738 146.299 80.1261C146.519 80.3047 146.551 80.6298 146.373 80.8496C146.272 80.9732 146.125 81.0373 145.974 81.0373Z" fill="#FCFDFF"/>
</svg>
