<svg width="343" height="216" viewBox="0 0 343 216" fill="none" xmlns="http://www.w3.org/2000/svg">
<path d="M160.592 38.0702C160.023 38.0702 159.596 38.0702 158.174 32.5496C153.479 31.7002 153.053 31.134 152.91 30.9925C152.91 30.8509 152.768 30.4262 152.91 30.2847C152.91 30.0016 153.195 29.2938 158.601 27.1705C160.45 22.2161 161.161 22.2161 161.588 22.2161C162.015 22.2161 162.157 22.3577 162.299 22.4992C162.584 22.9239 163.01 24.1979 163.437 26.0381C163.579 26.6043 163.722 27.3121 163.864 27.7367C164.148 27.7367 164.717 28.0198 165.286 28.3029C167.989 29.2938 168.701 29.5769 168.843 30.2847C168.843 30.5678 168.843 30.8509 168.558 30.9925C167.989 31.5587 165.286 32.408 164.006 32.9742C161.73 38.0702 161.303 38.0702 160.877 38.2117L160.592 38.0702ZM154.76 30.2847C155.755 30.5678 157.463 30.9925 158.885 31.2756C159.17 31.2756 159.312 31.5587 159.454 31.8418C159.881 33.3989 160.308 35.0975 160.734 36.0884C161.303 35.0975 162.015 33.5405 162.726 32.1249C162.726 31.9834 163.01 31.8418 163.153 31.7002C164.433 31.2756 165.855 30.7094 166.709 30.2847C166.14 30.0016 165.286 29.7185 164.717 29.5769C163.153 29.0107 162.868 28.8692 162.584 28.5861C162.441 28.303 162.299 28.0198 161.872 26.3212C161.73 25.755 161.446 24.7641 161.303 24.1979C160.877 25.0472 160.165 26.6043 159.739 27.8783C159.739 28.0199 159.454 28.1614 159.312 28.3029C157.605 29.0107 155.755 29.86 154.76 30.2847Z" fill="#F6EBDE"/>
<path d="M318.861 168.928C318.22 168.928 317.739 168.927 316.137 162.709C310.849 161.752 310.369 161.115 310.208 160.955C310.208 160.796 310.048 160.318 310.208 160.158C310.208 159.839 310.529 159.042 316.618 156.65C318.701 151.07 319.502 151.07 319.983 151.07C320.463 151.07 320.624 151.229 320.784 151.389C321.104 151.867 321.585 153.302 322.066 155.375C322.226 156.013 322.386 156.81 322.546 157.288C322.867 157.288 323.508 157.607 324.149 157.926C327.193 159.042 327.994 159.361 328.154 160.158C328.154 160.477 328.154 160.796 327.834 160.955C327.193 161.593 324.149 162.55 322.707 163.187C320.143 168.927 319.662 168.927 319.181 169.087L318.861 168.928ZM312.291 160.158C313.413 160.477 315.336 160.955 316.938 161.274C317.259 161.274 317.419 161.593 317.579 161.912C318.06 163.666 318.54 165.579 319.021 166.695C319.662 165.579 320.463 163.825 321.264 162.231C321.264 162.071 321.585 161.912 321.745 161.753C323.187 161.274 324.79 160.636 325.751 160.158C325.11 159.839 324.149 159.52 323.508 159.361C321.745 158.723 321.425 158.564 321.104 158.245C320.944 157.926 320.784 157.607 320.303 155.694C320.143 155.056 319.822 153.94 319.662 153.302C319.181 154.259 318.38 156.012 317.9 157.447C317.9 157.607 317.579 157.766 317.419 157.926C315.496 158.723 313.413 159.68 312.291 160.158Z" fill="#F6EBDE"/>
<path d="M289.57 215.468C289.245 215.468 289.028 215.251 289.028 214.926V205.819C289.028 205.494 289.354 205.277 289.57 205.277C289.896 205.277 290.113 205.494 290.113 205.819V214.926C290.113 215.251 289.787 215.468 289.57 215.468Z" fill="#F6EBDE"/>
<path d="M285.884 213.517C285.668 213.517 285.559 213.517 285.451 213.3C285.234 213.083 285.342 212.758 285.559 212.541L293.04 207.337C293.257 207.12 293.582 207.229 293.799 207.445C294.016 207.662 293.907 207.987 293.691 208.204L286.21 213.408C286.21 213.408 285.993 213.408 285.884 213.408V213.517Z" fill="#F6EBDE"/>
<path d="M292.498 213.842C292.389 213.842 292.173 213.842 292.064 213.625L286.318 207.554C286.101 207.337 286.101 207.012 286.318 206.795C286.535 206.578 286.86 206.578 287.077 206.795L292.823 212.866C293.04 213.083 293.04 213.408 292.823 213.625C292.823 213.625 292.606 213.734 292.498 213.734V213.842Z" fill="#F6EBDE"/>
<path d="M284.908 210.806C284.583 210.806 284.366 210.589 284.366 210.264C284.366 209.939 284.583 209.722 284.908 209.722H293.69C294.015 209.722 294.232 209.939 294.232 210.264C294.232 210.589 294.015 210.806 293.69 210.806H284.908Z" fill="#F6EBDE"/>
<path d="M10.6446 137.267C10.3194 137.267 10.1025 137.051 10.1025 136.725V127.618C10.1025 127.293 10.4278 127.076 10.6446 127.076C10.9699 127.076 11.1867 127.293 11.1867 127.618V136.725C11.1867 137.051 10.8615 137.267 10.6446 137.267Z" fill="#F6EBDE"/>
<path d="M6.95861 135.316C6.74177 135.316 6.63335 135.316 6.52493 135.099C6.3081 134.882 6.41651 134.557 6.63335 134.34L14.1142 129.136C14.3311 128.919 14.6563 129.028 14.8732 129.245C15.09 129.461 14.9816 129.787 14.7648 130.004L7.28386 135.208C7.28386 135.208 7.06703 135.208 6.95861 135.208V135.316Z" fill="#F6EBDE"/>
<path d="M13.572 135.75C13.4636 135.75 13.2467 135.75 13.1383 135.533L7.39212 129.461C7.17528 129.245 7.17528 128.919 7.39212 128.702C7.60896 128.486 7.93422 128.486 8.15105 128.702L13.8972 134.774C14.1141 134.991 14.1141 135.316 13.8972 135.533C13.8972 135.533 13.6804 135.641 13.572 135.641V135.75Z" fill="#F6EBDE"/>
<path d="M5.87413 132.605C5.54887 132.605 5.33203 132.389 5.33203 132.063C5.33203 131.738 5.54887 131.521 5.87413 131.521H14.656C14.9813 131.521 15.1981 131.738 15.1981 132.063C15.1981 132.389 14.9813 132.605 14.656 132.605H5.87413Z" fill="#F6EBDE"/>
<path d="M117.438 88.3476C115.378 88.3476 113.643 86.6129 113.751 84.5529C113.751 82.493 115.486 80.8667 117.546 80.8667C118.522 80.8667 119.498 81.3004 120.257 81.9509C120.907 82.7098 121.341 83.5772 121.341 84.5529C121.341 86.6129 119.606 88.2392 117.546 88.2392L117.438 88.3476ZM117.438 81.9509C115.92 81.9509 114.727 83.1435 114.727 84.5529C114.727 86.0708 115.92 87.2634 117.329 87.2634C118.739 87.2634 120.04 86.0708 120.04 84.6614C120.04 83.9024 119.823 83.2519 119.281 82.8182C118.739 82.2761 118.088 82.0593 117.438 82.0593V81.9509Z" fill="#F6EBDE"/>
<path d="M32.1276 87.459C30.0676 87.459 28.3329 85.7243 28.4413 83.6643C28.4413 81.6044 30.176 79.9781 32.236 79.9781C33.2118 79.9781 34.1875 80.4118 34.9465 81.0623C35.597 81.8212 36.0307 82.6886 36.0307 83.6643C36.0307 85.7243 34.296 87.3506 32.236 87.3506L32.1276 87.459ZM32.1276 81.0623C30.6097 81.0623 29.4171 82.2549 29.4171 83.6643C29.4171 85.1822 30.6097 86.3748 32.0192 86.3748C33.4286 86.3748 34.7296 85.1822 34.7296 83.7727C34.7296 83.0138 34.5128 82.3633 33.9707 81.9296C33.4286 81.3876 32.7781 81.1707 32.1276 81.1707V81.0623Z" fill="#F6EBDE"/>
<path d="M299.396 124.557C296.464 124.557 293.994 122.05 294.148 119.073C294.148 116.097 296.618 113.747 299.55 113.747C300.939 113.747 302.328 114.373 303.409 115.313C304.335 116.41 304.952 117.663 304.952 119.073C304.952 122.05 302.483 124.4 299.55 124.4L299.396 124.557ZM299.396 115.157C297.235 115.157 295.537 116.88 295.537 118.917C295.537 121.11 297.235 122.834 299.242 122.834C301.248 122.834 303.1 121.11 303.1 119.073C303.1 117.977 302.791 117.037 302.02 116.41C301.248 115.627 300.322 115.313 299.396 115.313V115.157Z" fill="#F6EBDE"/>
<path d="M290.946 65.7598C290.708 65.7598 290.353 65.5235 290.234 65.1692C290.234 65.1692 289.879 62.807 289.405 59.8542C283.715 58.4369 283.597 57.6101 283.478 57.2557C283.478 57.0195 283.478 56.6652 283.715 56.429C284.308 55.8384 286.915 54.6573 288.693 53.8305C288.219 48.3974 288.693 47.2163 289.642 47.0982C289.879 47.0982 289.997 47.0982 290.116 47.3344C290.116 47.3344 291.894 49.3423 293.909 51.5864C296.161 50.6415 298.887 49.6966 299.717 49.6966C300.547 49.6966 300.191 49.6966 300.31 49.9329C300.31 50.051 300.428 50.2872 300.31 50.5234C300.191 51.114 298.532 54.0668 297.346 55.9565C300.31 59.7361 300.428 60.5629 300.31 61.0353C300.31 61.2715 300.073 61.5077 299.835 61.5077C299.717 61.5077 299.48 61.5077 299.124 61.5077C298.176 61.5077 296.517 61.2715 294.383 60.9172C291.42 65.6416 291.064 65.6416 290.59 65.6416L290.946 65.7598ZM290.708 60.2085C290.946 61.8621 291.183 63.1613 291.301 64.1062C291.657 63.6338 292.368 62.6889 293.435 60.9172C292.486 60.681 291.538 60.5629 290.708 60.3266V60.2085ZM295.45 59.9723C297.228 60.3266 298.769 60.4448 299.48 60.4448C299.243 59.9723 298.769 59.0274 297.109 57.0195C296.517 57.9644 295.924 58.9093 295.45 59.8542V59.9723ZM290.59 58.9093C291.775 59.1455 292.961 59.4999 294.146 59.7361C294.857 58.555 295.568 57.3738 296.28 56.0746C295.568 55.1297 294.739 54.1849 293.672 53.0038C292.486 53.4762 291.183 54.0668 289.997 54.5392C290.116 55.8384 290.234 57.2558 290.471 58.7912L290.59 58.9093ZM285.019 57.1377C285.612 57.492 286.797 57.9644 289.405 58.6731C289.286 57.3739 289.049 56.3109 289.049 55.2479C286.915 56.1928 285.73 56.9014 285.137 57.2557L285.019 57.1377ZM294.976 52.6494C295.687 53.4762 296.398 54.303 296.991 55.1298C298.057 53.3581 298.769 51.9408 299.124 51.2321C298.295 51.4683 296.991 51.9407 294.857 52.7675L294.976 52.6494ZM289.879 48.7518C289.879 49.3423 289.642 50.6415 289.879 53.4762C290.827 53.0038 291.894 52.6494 292.842 52.177C291.538 50.7596 290.471 49.4604 289.76 48.7518H289.879Z" fill="#F6EBDE"/>
<path d="M94.683 141.253C94.683 141.253 48.348 141.253 61.0901 107.66C73.8323 74.0674 114.375 78.7009 120.167 52.0582C125.959 25.4156 95.8414 12.6735 93.5247 25.4156C91.2079 38.1577 109.742 46.2664 74.9906 67.1171C40.2394 87.9679 0.854602 147.045 93.5247 152.837L94.683 141.253Z" fill="#FCAC4F"/>
<path d="M64.2179 185.735C64.2179 185.735 52.4025 135.346 79.3926 119.128C106.383 102.911 116.461 116.232 133.952 100.015C151.559 83.7978 141.945 70.9399 152.718 68.1598C163.491 65.3797 217.471 49.2783 246.199 59.472C274.926 69.6657 259.404 176.468 265.659 180.522C271.915 184.577 108.12 204.269 64.102 185.735H64.2179Z" fill="#F6EBDE"/>
<path d="M214.112 112.757C208.088 112.757 200.443 101.637 200.095 101.057C199.864 100.826 200.095 100.478 200.211 100.247C200.443 100.015 200.79 100.247 201.022 100.362C201.022 100.478 209.246 112.294 214.691 111.483C219.093 110.788 220.019 100.015 220.019 95.9606C220.019 95.6131 220.251 95.3814 220.598 95.3814C220.946 95.3814 221.178 95.6131 221.178 95.9606C221.178 96.6556 221.178 111.715 214.807 112.641C214.575 112.641 214.343 112.641 214.112 112.641V112.757Z" fill="#342E2E"/>
<path d="M214.806 112.757C214.575 112.757 214.343 112.641 214.227 112.41L207.625 91.7905C207.625 91.443 207.625 91.2114 207.972 91.0955C208.32 91.0955 208.551 91.0955 208.667 91.443L215.27 112.062C215.27 112.41 215.27 112.641 214.922 112.757C214.922 112.757 214.806 112.757 214.691 112.757H214.806Z" fill="#342E2E"/>
<path d="M212.49 85.3036C212.49 85.3036 209.362 91.0954 208.552 91.2112C207.741 91.3271 200.906 89.3579 200.906 89.3579C200.906 89.3579 206.582 83.7977 212.49 85.3036Z" fill="#CA7A8C"/>
<path d="M188.28 59.2402C188.28 59.2402 211.795 96.3082 187.469 107.429C163.143 118.549 140.787 108.471 140.323 102.795C139.165 86.5778 145.42 77.5425 145.42 77.5425C145.42 77.5425 138.47 53.2166 140.787 52.8691C143.103 52.5216 169.398 62.1361 171.715 61.3253C174.032 60.5144 188.396 59.2402 188.396 59.2402H188.28Z" fill="#FCAC4F"/>
<path d="M203.57 56.9235C203.57 56.9235 211.447 85.072 224.074 90.053C236.7 95.034 261.258 89.7055 264.038 85.767C266.818 81.8286 263.69 60.2828 240.87 42.6754C231.024 35.0302 212.606 30.2808 213.417 33.0609C214.807 38.042 218.861 52.6375 218.861 52.6375L203.455 56.8076L203.57 56.9235Z" fill="#FCAC4F"/>
<path d="M266.122 128.858C266.122 128.858 264.037 156.08 272.725 167.085C281.413 178.089 300.526 190.252 292.418 191.99C284.309 193.728 256.624 179.711 251.295 182.144C237.395 188.515 226.39 184.461 221.757 186.198C217.123 187.936 255.929 212.262 243.187 213.999C230.444 215.737 186.426 194.307 174.842 185.04C163.259 175.773 178.318 168.822 203.802 162.451C229.286 156.08 259.172 124.804 266.122 128.858Z" fill="#F6EBDE"/>
<path d="M243.187 214.694C243.071 214.694 242.955 214.694 242.839 214.578C240.291 212.609 230.561 207.976 230.445 207.976C230.213 207.86 229.981 207.512 230.213 207.165C230.329 206.933 230.676 206.701 231.024 206.933C231.372 207.165 240.986 211.567 243.534 213.652C243.766 213.883 243.882 214.231 243.534 214.463C243.534 214.578 243.303 214.694 243.071 214.694H243.187Z" fill="#342E2E"/>
<path d="M245.504 213.768C245.272 213.768 245.156 213.768 245.04 213.536C243.419 211.103 235.658 205.659 235.658 205.543C235.426 205.311 235.31 204.964 235.542 204.732C235.773 204.501 236.121 204.385 236.353 204.616C236.7 204.848 244.23 210.177 246.083 212.841C246.315 213.073 246.083 213.42 245.967 213.652C245.967 213.652 245.736 213.652 245.62 213.652L245.504 213.768Z" fill="#342E2E"/>
<path d="M289.174 194.654C289.058 194.654 288.827 194.654 288.711 194.423C287.089 192.453 278.749 187.356 278.749 187.241C278.517 187.125 278.401 186.661 278.517 186.43C278.633 186.198 279.096 186.082 279.328 186.198C279.676 186.43 287.784 191.527 289.638 193.496C289.869 193.728 289.869 194.075 289.638 194.307C289.638 194.307 289.406 194.423 289.29 194.423L289.174 194.654Z" fill="#342E2E"/>
<path d="M291.839 192.685C291.607 192.685 291.376 192.685 291.376 192.338C289.406 188.747 281.529 185.04 281.529 185.04C281.182 184.924 281.066 184.576 281.298 184.229C281.414 183.997 281.761 183.766 282.109 183.997C282.456 184.113 290.449 187.936 292.534 191.758C292.65 191.99 292.534 192.338 292.302 192.569H292.071L291.839 192.685Z" fill="#342E2E"/>
<path d="M189.901 90.1688C189.67 90.1688 189.554 90.1689 189.438 89.9372C182.835 81.1335 165.923 85.4195 165.691 85.5353C165.344 85.5353 165.112 85.5353 164.996 85.072C164.881 84.6086 164.996 84.4928 165.46 84.377C166.155 84.1453 183.299 79.7435 190.365 89.2421C190.596 89.4738 190.481 89.8213 190.249 90.053C190.249 90.053 190.017 90.053 189.901 90.053V90.1688Z" fill="#342E2E"/>
<path d="M222.915 83.2186C222.915 83.2186 222.915 83.2186 222.799 83.2186C222.452 83.2186 222.336 82.8711 222.336 82.5236C224.653 73.0249 238.901 68.3914 239.48 68.1597C239.827 68.1597 240.059 68.1598 240.175 68.5073C240.175 68.8548 240.175 69.0864 239.827 69.2023C239.712 69.2023 225.579 73.8358 223.378 82.6394C223.378 82.8711 223.031 83.1028 222.799 83.1028L222.915 83.2186Z" fill="#342E2E"/>
<path d="M231.256 188.399C228.013 188.399 224.537 188.052 220.599 187.472C220.251 187.472 220.02 187.125 220.136 186.777C220.136 186.43 220.483 186.198 220.831 186.314C235.89 188.863 248.052 186.082 256.161 178.321C262.185 172.529 263.806 165.811 263.806 165.811C263.806 165.463 264.154 165.347 264.501 165.347C264.849 165.347 264.965 165.695 264.965 166.043C264.965 166.274 259.405 188.399 231.256 188.399Z" fill="#342E2E"/>
<path d="M155.73 191.527C155.614 191.527 155.498 191.527 155.382 191.411C155.382 191.411 147.969 185.851 138.007 190.368C137.659 190.484 137.427 190.368 137.196 190.021C136.964 189.673 137.196 189.442 137.543 189.21C148.2 184.461 155.961 190.368 156.077 190.484C156.309 190.716 156.425 191.063 156.077 191.295C156.077 191.411 155.846 191.527 155.614 191.527H155.73Z" fill="#342E2E"/>
<path d="M158.625 190.368C158.394 190.368 158.162 190.253 158.046 189.905C155.845 181.796 143.798 183.881 143.682 183.997C143.335 183.997 143.103 183.881 142.987 183.534C142.987 183.186 143.103 182.955 143.451 182.839C143.566 182.839 156.772 180.522 159.205 189.673C159.205 190.021 159.205 190.253 158.741 190.368C158.741 190.368 158.741 190.368 158.625 190.368Z" fill="#342E2E"/>
<path d="M107.657 109.282C107.657 109.282 134.879 145.771 96.073 152.721C57.2674 159.671 111.132 183.997 62.4801 180.522C62.4801 180.522 53.7923 148.667 68.8512 128.974C83.9101 109.282 107.657 109.282 107.657 109.282Z" fill="#FCAC4F"/>
<path d="M204.845 144.381C198.821 144.381 192.45 143.802 185.963 142.759C137.891 134.651 139.165 94.4549 139.165 94.1074C139.165 93.7599 139.512 93.5282 139.744 93.5282C140.092 93.5282 140.323 93.7599 140.323 94.1074C140.323 94.4549 139.165 133.608 186.195 141.601C213.069 146.118 236.932 141.022 251.527 127.469C260.91 118.781 265.544 107.197 264.501 94.6866C264.501 94.3391 264.733 94.1074 265.08 94.1074C265.428 94.1074 265.659 94.3391 265.659 94.6866C266.818 107.545 262.069 119.476 252.338 128.395C240.986 138.821 224.19 144.381 204.845 144.381Z" fill="#342E2E"/>
<path d="M129.666 193.264C129.434 193.264 129.203 193.148 129.087 192.801C129.087 192.453 129.087 192.222 129.434 192.106C136.964 189.905 143.335 179.827 145.652 166.39C149.474 144.265 140.902 129.206 131.519 122.488C113.912 109.745 87.0377 123.183 86.806 123.298C86.5743 123.414 86.2268 123.298 85.9951 123.067C85.8793 122.835 85.9952 122.488 86.2268 122.256C86.4585 122.14 114.028 108.355 132.214 121.561C141.829 128.511 150.633 143.917 146.81 166.622C144.377 180.522 137.775 190.948 129.782 193.264C129.782 193.264 129.782 193.264 129.666 193.264Z" fill="#342E2E"/>
<path d="M150.98 71.7508C150.98 71.7508 144.841 58.4294 146.578 58.7769C148.316 59.1245 161.637 64.5688 162.216 65.148C162.796 65.7272 150.98 71.7508 150.98 71.7508Z" fill="#F6F7E2"/>
<path d="M226.854 49.1623C226.854 49.1623 220.715 37.3469 222.8 37.8102C224.885 38.2736 239.017 45.6872 237.048 46.498C235.079 47.3089 226.854 49.1623 226.854 49.1623Z" fill="#F6F7E2"/>
<path d="M242.724 94.9182C242.608 94.9182 242.376 94.9182 242.26 94.6865C242.029 94.4548 242.029 94.1073 242.26 93.8757L263.458 74.1833C263.69 73.9516 264.038 73.9516 264.269 74.1833C264.501 74.415 264.501 74.7624 264.269 74.9941L243.071 94.6865C243.071 94.6865 242.839 94.8024 242.724 94.8024V94.9182Z" fill="#261D2A"/>
<path d="M245.851 97.2349C245.619 97.2349 245.388 97.2349 245.388 96.8874C245.272 96.6557 245.388 96.3082 245.619 96.0765L269.598 83.3344C269.829 83.2185 270.177 83.3344 270.409 83.5661C270.524 83.7977 270.409 84.1452 270.177 84.3769L246.199 97.119H245.967L245.851 97.2349Z" fill="#261D2A"/>
<path d="M246.546 100.71C246.315 100.71 245.967 100.478 245.967 100.247C245.967 99.8992 246.199 99.6675 246.431 99.5516L269.946 96.424C270.293 96.424 270.525 96.6557 270.641 96.8874C270.641 97.2349 270.409 97.4665 270.177 97.5824L246.662 100.71H246.546Z" fill="#261D2A"/>
<path d="M153.877 114.263C153.529 114.263 153.297 114.031 153.297 113.684C153.297 113.336 153.529 113.105 153.877 113.105L185.5 112.757C185.848 112.757 186.079 112.989 186.079 113.336C186.079 113.684 185.848 113.916 185.5 113.916L153.877 114.263Z" fill="#261D2A"/>
<path d="M157.352 125.847C157.12 125.847 156.888 125.731 156.772 125.499C156.772 125.152 156.772 124.92 157.12 124.804L184.921 115.885C185.269 115.885 185.5 115.885 185.616 116.232C185.616 116.58 185.616 116.811 185.268 116.927L157.467 125.847C157.467 125.847 157.352 125.847 157.236 125.847H157.352Z" fill="#261D2A"/>
<path d="M159.321 140.095C159.089 140.095 158.973 140.095 158.857 139.863C158.626 139.631 158.741 139.284 158.973 139.052L186.774 118.549C187.006 118.317 187.353 118.433 187.585 118.665C187.817 118.896 187.701 119.244 187.469 119.476L159.668 139.979C159.668 139.979 159.436 139.979 159.321 139.979V140.095Z" fill="#261D2A"/>
<path d="M192.103 194.886C192.103 194.886 192.103 194.886 191.987 194.886C177.97 190.6 171.02 174.73 170.789 174.151C170.673 173.804 170.789 173.572 171.136 173.34C171.484 173.224 171.715 173.34 171.947 173.688C171.947 173.804 179.013 189.673 192.45 193.843C192.798 193.843 192.914 194.307 192.798 194.538C192.798 194.77 192.45 195.002 192.219 195.002L192.103 194.886Z" fill="#261D2A"/>
<path d="M109.858 60.3985C109.626 60.3985 109.395 60.2827 109.395 60.051C109.395 59.8193 109.395 59.4718 109.626 59.2402C112.29 57.8501 111.248 55.5333 111.248 55.4175C111.132 55.07 111.248 54.8383 111.48 54.6067C111.827 54.4908 112.059 54.6066 112.29 54.8383C112.87 55.9967 113.101 58.661 110.09 60.1669C110.09 60.1669 109.974 60.1669 109.858 60.1669V60.3985Z" fill="#261D2A"/>
<path d="M107.657 55.3017C107.426 55.3017 107.194 55.1859 107.194 54.9542C107.194 54.7225 107.194 54.375 107.426 54.1433C110.09 52.7532 109.047 50.4365 109.047 50.3207C108.931 49.9732 109.047 49.7415 109.279 49.5098C109.626 49.394 109.858 49.5098 110.09 49.7415C110.669 50.8999 110.901 53.5641 107.889 55.07C107.889 55.07 107.773 55.07 107.657 55.07V55.3017Z" fill="#261D2A"/>
<path d="M112.753 53.3324C112.522 53.3324 112.29 53.2166 112.29 52.9849C112.174 52.7532 112.29 52.4057 112.522 52.1741C115.186 50.784 114.143 48.4672 114.143 48.3514C114.028 48.0039 114.143 47.7722 114.375 47.5406C114.723 47.4247 114.954 47.5405 115.186 47.7722C115.765 48.9306 115.997 51.5949 112.985 53.1008C112.985 53.1008 112.869 53.1008 112.753 53.1008V53.3324Z" fill="#261D2A"/>
<path d="M134.647 133.26C134.416 133.26 134.068 133.029 134.068 132.797C133.605 129.901 131.172 130.017 130.941 130.017C130.593 130.017 130.361 129.785 130.361 129.554C130.361 129.206 130.593 128.974 130.825 128.859C132.099 128.743 134.763 129.322 135.227 132.565C135.227 132.913 135.111 133.145 134.763 133.26H134.647Z" fill="#261D2A"/>
<path d="M248.515 176.699C248.515 176.699 248.4 176.699 248.284 176.699C247.936 176.699 247.705 176.468 247.705 176.12C247.705 175.773 248.052 175.541 248.284 175.541C251.296 175.541 251.527 173.108 251.527 172.993C251.527 172.645 251.875 172.413 252.106 172.413C252.454 172.413 252.686 172.761 252.686 172.993C252.686 174.267 251.527 176.699 248.515 176.699Z" fill="#261D2A"/>
<path d="M249.674 170.676C249.674 170.676 249.558 170.676 249.442 170.676C249.094 170.676 248.863 170.444 248.863 170.097C248.863 169.749 249.21 169.518 249.442 169.518C252.454 169.518 252.685 167.085 252.685 166.969C252.685 166.622 253.033 166.39 253.265 166.39C253.612 166.39 253.844 166.737 253.844 166.969C253.844 168.243 252.685 170.676 249.674 170.676Z" fill="#261D2A"/>
<path d="M242.955 174.962C242.955 174.962 242.84 174.962 242.724 174.962C242.376 174.962 242.145 174.73 242.145 174.383C242.145 174.035 242.492 173.803 242.724 173.803C245.735 173.803 245.967 171.371 245.967 171.255C245.967 170.907 246.199 170.676 246.546 170.676C246.894 170.676 247.126 171.023 247.126 171.255C247.126 172.529 245.967 174.962 242.955 174.962Z" fill="#261D2A"/>
<path d="M241.797 181.333C241.797 181.333 241.681 181.333 241.565 181.333C241.218 181.333 240.986 181.101 240.986 180.754C240.986 180.406 241.333 180.175 241.565 180.175C244.577 180.175 244.808 177.742 244.808 177.626C244.808 177.279 245.04 177.047 245.388 177.047C245.735 177.047 245.967 177.395 245.967 177.626C245.967 178.9 244.808 181.333 241.797 181.333Z" fill="#261D2A"/>
<path d="M236.353 181.101C236.353 181.101 236.237 181.101 236.121 181.101C235.774 181.101 235.542 180.87 235.542 180.522C235.542 180.175 235.89 179.943 236.121 179.943C239.133 180.059 239.365 177.51 239.365 177.395C239.365 177.047 239.712 176.815 239.944 176.815C240.291 176.815 240.523 177.163 240.523 177.395C240.523 178.669 239.365 181.101 236.353 181.101Z" fill="#261D2A"/>
<path d="M39.8917 122.603C39.7759 122.603 39.5442 122.603 39.4284 122.372C38.6175 121.329 37.575 118.897 40.0075 116.696C40.2392 116.464 40.5867 116.464 40.8184 116.696C41.0501 116.927 41.0501 117.275 40.8184 117.506C38.6175 119.592 40.2392 121.561 40.3551 121.677C40.5867 121.908 40.5867 122.256 40.3551 122.487C40.3551 122.487 40.1234 122.603 40.0075 122.603H39.8917Z" fill="#261D2A"/>
<path d="M43.2516 127.7C43.1357 127.7 42.9041 127.7 42.7882 127.469C41.9774 126.426 40.9348 123.993 43.3674 121.677C43.5991 121.445 43.9466 121.445 44.1783 121.677C44.4099 121.908 44.4099 122.256 44.1783 122.488C41.9774 124.573 43.5991 126.542 43.7149 126.658C43.9466 126.889 43.9466 127.237 43.7149 127.469C43.7149 127.469 43.4832 127.584 43.3674 127.584L43.2516 127.7Z" fill="#261D2A"/>
<path d="M44.9889 119.939C44.873 119.939 44.6414 119.939 44.5255 119.707C43.7147 118.665 42.6721 116.232 45.1047 113.916C45.3364 113.684 45.6839 113.684 45.9156 113.916C46.1472 114.147 46.1472 114.495 45.9156 114.726C43.7147 116.696 45.2205 118.665 45.4522 118.897C45.6839 119.128 45.6839 119.476 45.4522 119.707C45.4522 119.707 45.2205 119.823 45.1047 119.823L44.9889 119.939Z" fill="#261D2A"/>
<path d="M41.2823 114.611C41.1665 114.611 40.9348 114.611 40.819 114.379C40.0081 113.336 38.9656 110.904 41.3982 108.587C41.6298 108.355 41.9774 108.355 42.209 108.587C42.4407 108.819 42.4407 109.166 42.209 109.398C40.0081 111.483 41.6298 113.452 41.7457 113.568C41.9774 113.8 41.9774 114.147 41.7457 114.379C41.7457 114.379 41.514 114.495 41.3982 114.495L41.2823 114.611Z" fill="#261D2A"/>
<path d="M45.4518 110.904C45.3359 110.904 45.1042 110.904 44.9884 110.672C44.1775 109.63 43.135 107.197 45.5676 104.996C45.7993 104.764 46.1468 104.764 46.3785 104.996C46.6101 105.228 46.6101 105.575 46.3785 105.807C44.1775 107.776 45.6834 109.745 45.9151 109.977C46.1468 110.209 46.1468 110.556 45.9151 110.788C45.9151 110.788 45.6834 110.904 45.5676 110.904H45.4518Z" fill="#261D2A"/>
<path d="M139.512 141.485C139.512 141.485 139.396 141.485 139.28 141.485C138.933 141.485 138.817 141.022 138.933 140.79C139.859 138.01 137.658 137.083 137.311 136.967C136.963 136.967 136.848 136.504 136.963 136.272C136.963 135.925 137.427 135.809 137.658 135.925C138.933 136.388 140.902 138.126 139.975 141.253C139.975 141.485 139.628 141.601 139.396 141.601L139.512 141.485Z" fill="#261D2A"/>
<path d="M124.801 127.816C124.569 127.816 124.338 127.7 124.222 127.353C123.411 124.457 120.863 125.036 120.747 125.036C120.399 125.036 120.168 124.92 120.052 124.573C120.052 124.225 120.168 123.993 120.515 123.878C121.789 123.53 124.454 123.878 125.38 127.005C125.38 127.353 125.38 127.584 125.033 127.7C125.033 127.7 125.033 127.7 124.917 127.7L124.801 127.816Z" fill="#261D2A"/>
<path d="M129.434 127.584C129.203 127.584 128.855 127.353 128.855 127.121C128.392 124.225 125.959 124.341 125.728 124.457C125.38 124.457 125.148 124.225 125.148 123.994C125.148 123.646 125.38 123.414 125.612 123.298C126.886 123.183 129.55 123.762 130.014 127.005C130.014 127.353 129.898 127.584 129.55 127.7L129.434 127.584Z" fill="#261D2A"/>
<path d="M135.921 139.168C135.69 139.168 135.342 138.936 135.342 138.705C134.879 135.809 132.446 135.925 132.214 136.04C131.867 136.04 131.635 135.809 131.635 135.577C131.635 135.23 131.867 134.998 132.099 134.882C133.373 134.766 136.037 135.345 136.5 138.589C136.5 138.936 136.385 139.168 136.037 139.284L135.921 139.168Z" fill="#261D2A"/>
<path d="M129.203 134.303C128.971 134.303 128.624 134.071 128.624 133.84C128.16 130.944 125.728 131.06 125.496 131.06C125.149 131.06 124.917 130.828 124.917 130.596C124.917 130.249 125.149 130.017 125.38 129.901C126.655 129.785 129.319 130.364 129.782 133.608C129.782 133.955 129.666 134.187 129.319 134.303H129.203Z" fill="#261D2A"/>
<path d="M98.7374 69.8972C98.5057 69.8972 98.274 69.7814 98.1582 69.5497C98.1582 69.2022 98.1582 68.9705 98.5057 68.8547C101.402 67.8121 100.707 65.3795 100.591 65.2637C100.591 64.9162 100.591 64.6845 100.938 64.5687C101.286 64.5687 101.517 64.5687 101.633 64.9162C101.981 66.1904 101.865 68.8547 98.7374 69.8972C98.7374 69.8972 98.6216 69.8972 98.5057 69.8972H98.7374Z" fill="#261D2A"/>
<path d="M104.182 62.8312C103.95 62.8312 103.719 62.7154 103.719 62.4837C103.603 62.252 103.719 61.9045 103.95 61.6728C106.615 60.2828 105.572 57.9661 105.572 57.8502C105.456 57.5027 105.572 57.271 105.804 57.0393C106.151 56.9235 106.383 57.0394 106.615 57.271C107.194 58.4294 107.426 61.0937 104.414 62.5996C104.414 62.5996 104.298 62.5996 104.182 62.5996V62.8312Z" fill="#261D2A"/>
<path d="M104.182 68.1596C103.95 68.1596 103.719 68.0438 103.719 67.8121C103.603 67.5805 103.719 67.2329 103.95 67.0013C106.615 65.6112 105.572 63.2945 105.572 63.1786C105.456 62.8311 105.572 62.5994 105.804 62.3678C106.151 62.2519 106.383 62.3678 106.615 62.5995C107.194 63.7578 107.426 66.4221 104.414 67.928C104.414 67.928 104.298 67.928 104.182 67.928V68.1596Z" fill="#261D2A"/>
<path d="M155.961 68.5071C155.382 68.5071 153.992 68.0438 150.285 65.9587C150.053 65.8429 149.937 65.4953 150.053 65.1478C150.169 64.9162 150.517 64.8003 150.864 64.9162C152.138 65.6112 153.644 66.3062 154.687 66.7696C153.528 65.2637 152.022 63.2945 152.022 63.2945C151.791 63.0628 151.907 62.7153 152.138 62.4836C152.37 62.2519 152.718 62.3677 152.949 62.5994C152.949 62.5994 155.382 65.8429 156.424 67.1171C156.888 67.5804 156.656 68.0438 156.424 68.1596C156.424 68.2755 156.193 68.3913 155.961 68.3913V68.5071Z" fill="#261D2A"/>
<path d="M230.329 48.6991C229.982 48.6991 229.287 48.3516 227.202 43.6022C227.086 43.2547 227.202 43.023 227.549 42.7914C227.897 42.6755 228.128 42.7913 228.36 43.1389C228.939 44.5289 229.634 46.0348 230.098 46.8457C230.329 45.3398 230.677 43.0231 230.677 43.0231C230.677 42.6755 231.024 42.4438 231.372 42.5597C231.719 42.5597 231.951 42.9072 231.835 43.2547C231.835 43.3705 231.256 47.0774 231.024 48.1199C231.024 48.4674 230.677 48.6991 230.445 48.6991H230.329Z" fill="#261D2A"/>
<path d="M62.8546 210.305C62.6508 210.244 62.549 210.213 62.3452 210.151C62.0396 210.058 61.8969 209.795 61.9884 209.493C62.08 209.191 62.4466 209.081 62.6504 209.143C63.3635 209.359 63.9747 209.544 64.5859 209.729C64.8916 209.822 65.0343 210.085 65.0751 210.318C64.9835 210.62 64.7188 210.76 64.4845 210.799C63.9752 210.645 63.4658 210.49 62.9564 210.336L62.8546 210.305ZM60.3688 209.333C59.9613 209.209 59.5844 208.985 59.2074 208.761C58.9018 208.668 58.6267 208.475 58.4535 208.312C58.1478 208.22 58.168 207.786 58.3309 207.615C58.4225 207.313 58.7586 207.305 59.0337 207.498C59.3394 207.59 59.5126 207.753 59.7877 207.946C60.1952 208.07 60.4397 208.364 60.8472 208.487C61.1528 208.58 61.265 208.944 61.0716 209.215C61.0106 209.417 60.6439 209.526 60.4402 209.464L60.3688 209.333ZM66.4708 210.85C66.267 210.788 66.0938 210.626 66.053 210.394C66.1445 210.091 66.2056 209.89 66.5417 209.881C67.214 209.865 67.9167 209.748 68.5177 209.6C68.7519 209.56 69.027 209.754 69.1697 210.017C69.2106 210.249 69.0171 210.521 68.7524 210.661C68.0191 210.879 67.3163 210.996 66.5421 210.982C66.5421 210.982 66.4403 210.951 66.3384 210.92L66.4708 210.85ZM56.7315 207.021C56.7315 207.021 56.6297 206.99 56.5278 206.959C56.0081 206.472 55.3866 205.953 54.9993 205.396C54.8261 205.234 54.8463 204.8 55.0092 204.629C55.1721 204.458 55.6101 204.481 55.7833 204.643C56.2011 205.1 56.7208 205.587 57.2405 206.075C57.5155 206.268 57.5259 206.601 57.3324 206.873C57.2714 207.074 56.9353 207.083 56.7315 207.021ZM70.5753 209.783C70.4734 209.752 70.2697 209.69 70.2288 209.458C70.0861 209.194 70.1777 208.892 70.4425 208.752C70.972 208.472 71.634 208.123 72.1227 207.611C72.3875 207.471 72.7236 207.462 72.8663 207.726C73.009 207.989 73.0193 208.322 72.7546 208.462C72.164 208.943 71.502 209.293 70.9419 209.674C70.9419 209.674 70.7077 209.713 70.6058 209.682L70.5753 209.783ZM42.0307 200.479C41.725 200.386 41.5213 200.325 41.2157 200.232C40.9101 200.14 40.7674 199.876 40.8589 199.574C40.9505 199.272 41.2153 199.132 41.5209 199.224C42.234 199.44 42.8452 199.625 43.4564 199.81C43.762 199.903 43.9047 200.166 43.8132 200.469C43.7216 200.771 43.4569 200.911 43.1512 200.818C42.7438 200.695 42.3363 200.571 41.8269 200.417L42.0307 200.479ZM39.3412 199.444C38.6281 199.228 38.0779 198.842 37.4258 198.424C37.1202 198.332 37.1099 197.999 37.2014 197.696C37.293 197.394 37.6291 197.386 37.9347 197.478C38.5154 197.764 39.1675 198.182 39.7482 198.467C40.0538 198.56 40.166 198.924 39.9726 199.196C39.9116 199.397 39.6468 199.537 39.3412 199.444ZM45.3821 201.164C45.1784 201.102 45.0357 200.839 44.9948 200.606C45.0864 200.304 45.2493 200.133 45.5854 200.125C46.2272 200.209 47.0013 200.224 47.6736 200.207C47.9792 200.3 48.1829 200.361 48.1932 200.695C48.1017 200.997 48.0406 201.199 47.7045 201.207C47.0322 201.223 46.2581 201.209 45.5145 201.094L45.3821 201.164ZM54.0412 203.786C53.9393 203.755 53.8374 203.724 53.7661 203.592C53.4093 202.934 53.0525 202.276 52.8282 201.548C52.6854 201.285 52.8789 201.013 53.1436 200.873C53.4084 200.733 53.6835 200.927 53.8262 201.19C54.0811 201.817 54.336 202.445 54.7233 203.002C54.866 203.265 54.7745 203.568 54.5097 203.707C54.4792 203.808 54.2449 203.847 54.0412 203.786ZM35.6428 197.334C35.6428 197.334 35.541 197.303 35.4391 197.273C34.787 196.855 34.2368 196.468 33.7172 195.981C33.4421 195.788 33.4318 195.455 33.6252 195.183C33.8186 194.912 34.1547 194.903 34.4298 195.097C34.98 195.483 35.4997 195.971 36.0499 196.357C36.3555 196.45 36.3353 196.884 36.1724 197.055C36.1114 197.256 35.7752 197.264 35.5715 197.203L35.6428 197.334ZM49.6194 201.126C49.4157 201.065 49.2425 200.902 49.2016 200.67C49.1608 200.437 49.3542 200.166 49.619 200.026C50.3218 199.909 50.9227 199.761 51.656 199.543C51.9208 199.403 52.1653 199.697 52.3386 199.859C52.4813 200.123 52.186 200.363 52.0231 200.534C51.2898 200.752 50.587 200.869 49.8842 200.987C49.8842 200.987 49.7823 200.956 49.6805 200.925L49.6194 201.126ZM32.3314 194.681L32.1276 194.62C31.608 194.132 31.1188 193.544 30.7315 192.986C30.5888 192.723 30.5785 192.39 30.8433 192.25C31.108 192.11 31.4442 192.102 31.5869 192.365C31.9742 192.923 32.4938 193.41 32.9116 193.867C33.0849 194.029 33.0952 194.362 32.9018 194.634C32.8407 194.835 32.5046 194.844 32.4027 194.813L32.3314 194.681ZM73.8235 207.135C73.8235 207.135 73.7217 207.104 73.6198 207.074C73.3447 206.88 73.3344 206.547 73.5278 206.276C74.3423 205.422 74.6884 204.647 74.6884 204.647C74.7799 204.344 75.116 204.336 75.4217 204.429C75.7273 204.521 75.7376 204.854 75.646 205.157C75.646 205.157 75.1676 206.002 74.3226 206.956C74.2615 207.158 73.9254 207.166 73.7217 207.105L73.8235 207.135ZM52.5728 199.82C52.3691 199.759 52.1959 199.596 52.155 199.364C52.0325 198.666 52.0424 197.899 52.0523 197.132C52.1438 196.83 52.3067 196.659 52.6429 196.651C52.9485 196.743 53.1217 196.906 53.132 197.239C53.0508 197.875 53.0714 198.541 53.1939 199.238C53.2043 199.571 53.0413 199.742 52.6747 199.851C52.6747 199.851 52.5728 199.82 52.471 199.789L52.5728 199.82ZM53.6526 199.927C53.5507 199.896 53.347 199.835 53.3061 199.602C53.1634 199.339 53.255 199.037 53.5197 198.897C54.1817 198.547 54.7113 198.267 55.2713 197.887C55.5361 197.747 55.8722 197.739 56.0149 198.002C56.1576 198.265 56.168 198.598 55.9032 198.738C55.3431 199.119 54.6507 199.569 53.9887 199.919C53.9887 199.919 53.7544 199.958 53.6526 199.927ZM29.8039 191.275C29.702 191.244 29.6002 191.214 29.5288 191.082C29.172 190.424 28.8153 189.766 28.5604 189.138C28.4177 188.875 28.6111 188.604 28.774 188.433C29.0388 188.293 29.3139 188.486 29.4871 188.649C29.742 189.276 29.9969 189.903 30.3842 190.461C30.5269 190.724 30.4353 191.026 30.1706 191.166C30.14 191.267 29.9058 191.306 29.702 191.244L29.8039 191.275ZM57.0027 197.311C57.0027 197.311 56.9008 197.28 56.799 197.249C56.5239 197.056 56.5135 196.723 56.6764 196.552C57.0328 196.11 57.2872 195.637 57.4398 195.133C57.4398 195.133 57.5009 194.931 57.5314 194.83C57.6229 194.528 57.8877 194.388 58.0915 194.45C58.3971 194.542 58.5398 194.806 58.4482 195.108C58.4177 195.209 58.3872 195.31 58.3567 195.41C58.1736 196.015 57.8886 196.589 57.3999 197.101C57.3388 197.303 57.0027 197.311 56.799 197.249L57.0027 197.311ZM16.2438 184.639C16.0401 184.577 15.7345 184.484 15.5307 184.423C15.2251 184.33 15.0824 184.067 15.174 183.765C15.2655 183.462 15.6322 183.353 15.8359 183.415C16.4471 183.6 17.1602 183.816 17.7715 184.001C18.0771 184.094 18.2198 184.357 18.2606 184.589C18.3015 184.822 17.9043 185.031 17.67 185.071C17.1607 184.916 16.7532 184.793 16.2438 184.639ZM52.948 195.643C52.6424 195.55 52.4997 195.287 52.5913 194.985C52.8354 194.179 53.1509 193.504 53.6396 192.992C53.7312 192.689 54.1692 192.712 54.3424 192.874C54.648 192.967 54.6278 193.401 54.4649 193.572C54.1086 194.014 53.8236 194.588 53.61 195.293C53.5184 195.596 53.2537 195.736 52.948 195.643ZM13.6867 183.534C13.6867 183.534 13.6867 183.534 13.5849 183.503C12.9328 183.086 12.3826 182.699 11.7305 182.282C11.4554 182.088 11.4451 181.755 11.6385 181.484C11.832 181.212 12.1681 181.204 12.4432 181.397C12.9934 181.784 13.5436 182.171 14.0938 182.557C14.3994 182.65 14.4097 182.983 14.3182 183.285C14.2571 183.487 13.8905 183.596 13.6867 183.534ZM19.7277 185.253C19.5239 185.192 19.3507 185.029 19.3404 184.696C19.4319 184.394 19.493 184.192 19.931 184.215C20.6032 184.198 21.2755 184.182 21.9478 184.165C22.2839 184.157 22.4571 184.32 22.5693 184.684C22.5796 185.017 22.4167 185.188 22.0501 185.297C21.3473 185.414 20.5731 185.399 19.799 185.385C19.799 185.385 19.799 185.385 19.6971 185.354L19.7277 185.253ZM28.2032 187.38C27.9994 187.318 27.8976 187.287 27.8872 186.954C27.7647 186.257 27.6422 185.56 27.5502 184.762C27.6418 184.459 27.7028 184.258 28.039 184.249C28.3446 184.342 28.5483 184.404 28.5586 184.737C28.5793 185.403 28.7018 186.101 28.8548 186.697C28.8956 186.929 28.7022 187.201 28.4374 187.341L28.2337 187.279L28.2032 187.38ZM10.3753 180.881C10.3753 180.881 10.1715 180.819 10.0696 180.789C9.58048 180.2 9.06081 179.713 8.70404 179.055C8.56133 178.792 8.55101 178.458 8.91766 178.349C9.18244 178.209 9.51857 178.201 9.63076 178.565C10.018 179.123 10.4053 179.68 10.925 180.167C11.0982 180.33 11.1086 180.663 10.9151 180.935C10.8541 181.136 10.5485 181.044 10.4466 181.013L10.3753 180.881ZM23.9547 184.883C23.7509 184.821 23.649 184.791 23.6387 184.457C23.5979 184.225 23.7913 183.953 24.0561 183.814C24.7589 183.696 25.3903 183.447 25.9912 183.299C26.256 183.159 26.5311 183.353 26.6738 183.616C26.8165 183.879 26.6231 184.151 26.3583 184.291C25.625 184.509 24.9936 184.758 24.2908 184.875L24.0871 184.813L23.9547 184.883ZM57.4901 193.498C57.4901 193.498 57.2864 193.436 57.1845 193.405C56.9399 193.111 56.4611 192.856 55.9517 192.702C55.9517 192.702 55.8499 192.671 55.748 192.64C55.4424 192.547 55.2386 192.486 55.2283 192.153C55.3199 191.85 55.3809 191.649 55.717 191.64C55.9208 191.702 56.0226 191.733 56.2264 191.795C56.9395 192.011 57.5202 192.296 57.938 192.753C58.1112 192.916 58.1215 193.249 57.9281 193.52C57.8671 193.722 57.5615 193.629 57.4596 193.598L57.4901 193.498ZM7.98018 177.405C7.87831 177.374 7.67457 177.313 7.63374 177.08C7.27697 176.422 7.05259 175.694 6.82821 174.966C6.78737 174.734 6.9808 174.462 7.24558 174.322C7.47984 174.283 7.75493 174.477 7.89764 174.74C8.05066 175.336 8.30556 175.964 8.56046 176.591C8.70316 176.854 8.61162 177.156 8.34684 177.296C8.34684 177.296 8.11258 177.335 8.0107 177.305L7.98018 177.405ZM27.947 183.451C27.8451 183.421 27.6414 183.359 27.6005 183.126C27.6005 183.126 27.5597 182.894 27.5902 182.793C27.5902 182.793 27.6207 182.692 27.5494 182.561C27.6611 181.825 27.7729 181.088 27.9865 180.383C28.0781 180.08 28.3428 179.941 28.6484 180.033C28.9541 180.126 29.0968 180.389 29.0052 180.691C28.8831 181.094 28.7306 181.598 28.7104 182.032C29.1075 181.822 29.3723 181.683 29.7695 181.473C30.0342 181.333 30.3399 181.425 30.4826 181.689C30.6253 181.952 30.5337 182.254 30.2689 182.394C29.607 182.744 29.0469 183.124 28.3136 183.342C28.3136 183.342 28.0794 183.382 27.9775 183.351L27.947 183.451ZM31.613 181.261C31.613 181.261 31.4093 181.199 31.3074 181.168C31.1647 180.905 31.1544 180.572 31.4192 180.432C32.0098 179.951 32.468 179.539 32.8548 178.996C33.0482 178.725 33.3844 178.717 33.5576 178.879C33.8327 179.072 33.843 179.406 33.6801 179.576C33.2933 180.119 32.7027 180.601 32.0816 181.183C32.051 181.283 31.7149 181.292 31.613 181.261ZM6.87849 173.331C6.67475 173.269 6.50153 173.107 6.46069 172.874C6.44006 172.208 6.44994 171.441 6.45982 170.674C6.55137 170.371 6.71427 170.201 7.0504 170.192C7.35602 170.285 7.52925 170.447 7.53956 170.781C7.45833 171.416 7.44845 172.183 7.4996 172.749C7.40805 173.051 7.34701 173.253 7.01088 173.261C7.01088 173.261 6.90901 173.23 6.80714 173.199L6.87849 173.331ZM29.1269 179.188C29.1269 179.188 29.1269 179.188 29.025 179.157C28.7194 179.064 28.709 178.731 28.8006 178.429C29.2485 177.684 29.6659 177.04 30.2259 176.66C30.3888 176.489 30.8268 176.512 31.0001 176.674C31.1733 176.837 31.1531 177.271 30.9902 177.441C30.532 177.853 30.1757 178.295 29.8602 178.97C29.7991 179.171 29.4325 179.28 29.2287 179.219L29.1269 179.188ZM33.8323 177.972C33.6285 177.91 33.4553 177.748 33.4145 177.515C33.4145 177.515 33.3328 177.051 32.6197 176.835L32.5178 176.804C32.5178 176.804 32.4159 176.773 32.3141 176.742C32.0085 176.65 31.8352 176.487 31.8249 176.154C31.9165 175.852 32.0794 175.681 32.4155 175.673C32.5174 175.703 32.6193 175.734 32.7211 175.765L32.9249 175.827C34.1473 176.197 34.3717 176.925 34.4534 177.39C34.4637 177.723 34.3008 177.894 33.9341 178.003C33.9341 178.003 33.8323 177.972 33.7304 177.941L33.8323 177.972ZM7.25371 169.154C6.9481 169.061 6.80539 168.798 6.89694 168.495L6.9885 168.193C7.17161 167.588 7.35471 166.984 7.63969 166.41C7.73124 166.108 8.09789 165.999 8.37299 166.192C8.6786 166.284 8.7908 166.648 8.59737 166.92C8.41427 167.525 8.1598 167.998 7.9767 168.602L7.88515 168.905C7.79359 169.207 7.52881 169.347 7.2232 169.254L7.25371 169.154ZM8.95327 165.377C8.95327 165.377 8.95327 165.377 8.8514 165.346C8.54579 165.254 8.53546 164.921 8.62701 164.618C9.04438 163.975 9.43123 163.432 9.95047 162.819C10.1439 162.547 10.48 162.539 10.7551 162.732C11.0302 162.926 11.0405 163.259 10.8471 163.53C10.4603 164.073 9.97155 164.585 9.68657 165.159C9.62553 165.361 9.25888 165.47 9.05514 165.408L8.95327 165.377ZM11.7124 162.142C11.7124 162.142 11.5086 162.08 11.4068 162.049C11.2335 161.887 11.2232 161.554 11.4166 161.282C12.0072 160.801 12.5978 160.32 13.1579 159.939C13.4227 159.799 13.7283 159.892 13.871 160.155C14.0137 160.418 13.9222 160.721 13.6574 160.86C13.0973 161.241 12.5372 161.622 12.0485 162.134C11.9875 162.335 11.6818 162.243 11.58 162.212L11.7124 162.142ZM15.1747 159.89C15.0728 159.859 14.8691 159.797 14.8282 159.565C14.6855 159.301 14.879 159.03 15.0419 158.859C15.8057 158.54 16.6103 158.454 17.2826 158.437C17.5882 158.53 17.792 158.592 17.8023 158.925C17.7107 159.227 17.6497 159.429 17.3136 159.437C16.7432 159.484 16.0404 159.602 15.4089 159.851C15.4089 159.851 15.1747 159.89 15.0728 159.859L15.1747 159.89Z" fill="#F6EBDE"/>
<path d="M322.375 65.662C322.108 65.5972 321.874 65.3994 321.806 65.101C321.737 64.8025 321.967 64.4357 322.298 64.2344C322.763 64.0654 323.328 64.0618 323.825 63.7597C324.156 63.5584 324.491 63.9216 324.725 64.1194C324.927 64.4502 324.564 64.7846 324.366 65.0183C323.902 65.1873 323.304 65.324 322.706 65.4606C322.706 65.4606 322.573 65.4282 322.44 65.3959L322.375 65.662ZM326.454 63.9755C326.321 63.9432 326.054 63.8785 326.086 63.7454C325.885 63.4146 325.981 63.0154 326.313 62.8141C326.975 62.4113 327.67 61.8756 328.397 61.2067C328.728 61.0054 329.16 60.9694 329.362 61.3002C329.564 61.6311 329.6 62.0626 329.269 62.264C328.542 62.9328 327.847 63.4686 327.019 63.972C327.019 63.972 326.688 64.1733 326.422 64.1086L326.454 63.9755ZM330.452 60.297C330.452 60.297 330.319 60.2646 330.186 60.2323C329.818 60.0021 329.782 59.5706 330.145 59.2362C330.739 58.535 331.199 57.8014 331.66 57.0679C331.757 56.6687 332.322 56.6651 332.556 56.8629C332.956 56.96 332.96 57.5246 332.762 57.7583C332.27 58.6249 331.809 59.3585 331.215 60.0597C331.151 60.3258 330.719 60.3617 330.452 60.297ZM333.146 55.5972C332.746 55.5001 332.577 55.0362 332.807 54.6694C333.001 53.8711 333.36 52.9721 333.554 52.1738C333.651 51.7747 333.982 51.5733 334.382 51.6704C334.649 51.7351 334.984 52.0983 334.887 52.4975C334.661 53.4288 334.434 54.3602 333.942 55.2268C333.877 55.4929 333.546 55.6943 333.146 55.5972ZM334.439 50.2752C334.172 50.2104 333.837 49.8472 333.902 49.5811C334.096 48.7828 334.055 47.7867 333.983 46.9237C334.079 46.5245 334.144 46.2584 334.576 46.2225C334.976 46.3196 335.243 46.3843 335.279 46.8159C335.319 47.8119 335.392 48.675 335.299 49.6387C335.202 50.0378 334.871 50.2392 334.572 50.3075L334.439 50.2752ZM309.304 42.1978C308.904 42.1007 308.504 42.0037 308.302 41.6728C308.169 41.6405 308.068 41.475 307.967 41.3096C307.765 40.9788 307.729 40.5473 308.06 40.3459C308.391 40.1445 308.823 40.1086 309.025 40.4394C309.025 40.4394 309.259 40.6372 309.36 40.8026C309.493 40.835 309.728 41.0328 309.861 41.0651C309.994 41.0975 310.261 41.1623 310.624 40.8278C310.955 40.6265 311.355 40.7236 311.557 41.0544C311.759 41.3852 311.662 41.7844 311.331 41.9857C310.669 42.3885 310.071 42.5251 309.538 42.3956L309.304 42.1978ZM307.119 38.9902C306.852 38.9254 306.618 38.7277 306.582 38.2961C306.679 37.897 306.675 37.3324 306.772 36.9333C306.901 36.4011 307.03 35.8689 307.426 35.4014C307.523 35.0022 308.088 34.9987 308.322 35.1965C308.722 35.2936 308.726 35.8581 308.528 36.0919C308.431 36.491 308.201 36.8578 308.072 37.39C307.975 37.7892 307.91 38.0552 307.846 38.3213C307.749 38.7205 307.684 38.9866 307.252 39.0225C307.252 39.0225 307.252 39.0225 307.119 38.9902ZM312.147 39.7886C312.147 39.7886 312.147 39.7886 312.013 39.7563C311.614 39.6592 311.577 39.2276 311.674 38.8285C312.001 38.0626 312.329 37.2966 312.555 36.3653C312.652 35.9661 312.983 35.7648 313.383 35.8619C313.782 35.959 313.984 36.2898 313.887 36.689C313.629 37.7534 313.403 38.6847 312.942 39.4183C312.878 39.6844 312.413 39.8534 312.147 39.7886ZM334.067 44.8308C333.801 44.7661 333.534 44.7014 333.631 44.3022C333.425 43.4068 333.187 42.6445 332.816 41.8497C332.614 41.5189 332.844 41.1521 333.042 40.9184C333.373 40.717 333.741 40.9472 333.975 41.1449C334.346 41.9397 334.685 42.8675 334.859 43.8959C334.928 44.1944 334.697 44.5611 334.366 44.7625L334.1 44.6978L334.067 44.8308ZM331.871 39.9294C331.737 39.8971 331.604 39.8647 331.503 39.6993C330.966 39.0053 330.429 38.3112 329.726 37.7179C329.492 37.5201 329.456 37.0886 329.686 36.7218C329.884 36.4881 330.316 36.4521 330.684 36.6823C331.386 37.2756 332.057 38.002 332.561 38.8291C332.763 39.1599 332.666 39.5591 332.335 39.7605C332.303 39.8935 332.004 39.9618 331.737 39.8971L331.871 39.9294ZM309.78 34.4234C309.647 34.391 309.514 34.3587 309.413 34.1932C309.211 33.8624 309.308 33.4632 309.639 33.2619C310.334 32.7261 311.295 32.2551 312.224 31.9171C312.523 31.8487 312.89 32.0789 313.092 32.4098C313.161 32.7082 312.931 33.075 312.599 33.2763C311.836 33.5136 311.04 33.884 310.346 34.4198C310.313 34.5529 310.015 34.6211 309.748 34.5564L309.78 34.4234ZM313.573 34.499C313.306 34.4343 312.971 34.0711 313.035 33.805C313.229 33.0067 313.189 32.0106 313.116 31.1475C313.213 30.7484 313.278 30.4823 313.843 30.4787C314.243 30.5758 314.51 30.6406 314.514 31.2051C314.514 31.2051 314.481 31.3382 314.449 31.4712C314.449 31.4712 314.615 31.3706 314.78 31.2699C315.644 31.198 316.642 31.1585 317.607 31.252C318.007 31.3491 318.241 31.5469 318.278 31.9784C318.181 32.3775 317.983 32.6113 317.551 32.6472C316.618 32.4206 315.753 32.4925 314.889 32.5644C314.756 32.532 314.489 32.4673 314.356 32.4349C314.227 32.9671 314.263 33.3987 314.3 33.8302C314.203 34.2293 313.871 34.4307 313.573 34.499ZM327.853 36.1356C327.853 36.1356 327.719 36.1032 327.586 36.0708C326.984 35.6429 326.35 35.348 325.716 35.0531L325.316 34.956C324.949 34.7259 324.913 34.2944 325.01 33.8952C325.107 33.4961 325.539 33.4601 325.938 33.5572L326.338 33.6543C327.073 34.1146 327.707 34.4095 328.442 34.8698C328.842 34.9669 328.846 35.5315 328.648 35.7652C328.584 36.0313 328.151 36.0673 327.885 36.0026L327.853 36.1356ZM322.914 33.8089C322.114 33.6147 321.314 33.4204 320.515 33.2262L320.382 33.1939C319.982 33.0968 319.78 32.7659 319.877 32.3668C319.974 31.9676 320.305 31.7663 320.705 31.8634L320.838 31.8957C321.638 32.0899 322.57 32.3165 323.338 32.6438C323.738 32.7409 323.907 33.2048 323.709 33.4385C323.612 33.8377 323.313 33.906 322.914 33.8089ZM280.728 22.7176C280.462 22.6529 280.195 22.5881 279.961 22.3904C279.359 21.9624 279.121 21.2001 279.048 20.337C279.145 19.9379 279.21 19.6718 279.642 19.6358C280.042 19.7329 280.308 19.7977 280.345 20.2292C280.349 20.7938 280.55 21.1246 280.651 21.29L280.918 21.3548C281.217 21.2864 281.718 21.549 281.786 21.8474C281.855 22.1459 281.625 22.5127 281.293 22.714C281.027 22.6493 280.861 22.75 280.595 22.6853L280.728 22.7176ZM313.633 29.0188C313.367 28.954 313.133 28.7562 313.064 28.4577C312.991 27.5947 312.785 26.6993 312.58 25.8039C312.511 25.5055 312.741 25.1387 313.072 24.9373C313.371 24.869 313.739 25.0992 313.941 25.43C314.146 26.3254 314.352 27.2208 314.393 28.2169C314.296 28.616 314.231 28.8821 313.799 28.9181C313.799 28.9181 313.666 28.8857 313.532 28.8533L313.633 29.0188ZM282.142 20.3839C281.875 20.3192 281.673 19.9883 281.605 19.6899C281.633 18.9922 281.427 18.0968 281.221 17.2014C281.156 17.4675 281.124 17.6006 281.092 17.7336C280.995 18.1328 280.53 18.3018 280.163 18.0716C279.763 17.9745 279.593 17.5106 279.824 17.1439C280.018 16.3456 280.446 15.745 280.906 15.0115C280.64 14.9467 280.373 14.882 280.272 14.7166C279.901 13.9218 279.363 13.2278 278.826 12.5338C278.624 12.2029 278.588 11.7714 278.919 11.57C279.251 11.3687 279.683 11.3328 279.885 11.6636C280.555 12.39 281.06 13.2171 281.564 14.0442C281.564 14.0442 281.665 14.2096 281.633 14.3426C281.766 14.375 282.033 14.4397 282.166 14.4721C282.566 14.5692 282.57 15.1338 282.372 15.3675C282.307 15.6336 282.11 15.8674 281.879 16.2341C282.178 16.1658 282.546 16.3959 282.748 16.7268C283.054 17.7876 283.26 18.683 283.167 19.6467C283.071 20.0459 283.006 20.312 282.44 20.3156C282.44 20.3156 282.44 20.3156 282.307 20.2832L282.142 20.3839ZM255.981 13.0437C255.581 12.9466 255.411 12.4828 255.641 12.116C255.641 12.116 256.066 10.9509 257.087 9.64918C257.318 9.2824 257.75 9.24643 258.117 9.47658C258.485 9.70674 258.521 10.1383 258.291 10.5051C257.435 11.7061 256.909 12.7057 256.909 12.7057C256.845 12.9718 256.514 13.1732 256.114 13.0761L255.981 13.0437ZM312.232 23.747C311.966 23.6823 311.833 23.6499 311.764 23.3514C311.392 22.5567 311.021 21.762 310.649 20.9673C310.447 20.6364 310.544 20.2373 310.876 20.0359C311.207 19.8345 311.607 19.9317 311.808 20.2625C312.313 21.0896 312.685 21.8843 313.024 22.8121C313.226 23.1429 312.996 23.5097 312.664 23.7111C312.664 23.7111 312.398 23.6463 312.265 23.614L312.232 23.747ZM259.409 8.8042C259.276 8.77183 259.143 8.73946 259.042 8.57404C258.84 8.2432 258.804 7.81167 259.268 7.64267C259.995 6.97384 260.956 6.5028 261.752 6.13244C262.083 5.93107 262.451 6.16123 262.653 6.49207C262.854 6.8229 262.624 7.18971 262.293 7.39107C261.497 7.76143 260.835 8.16414 260.14 8.69992C260.108 8.83297 259.809 8.9013 259.543 8.83657L259.409 8.8042ZM283.059 13.7026C283.059 13.7026 282.792 13.6379 282.659 13.6055C282.425 13.4077 282.421 12.8431 282.619 12.6094C283.346 11.9406 284.072 11.2718 284.9 10.7684C285.232 10.567 285.631 10.6641 285.833 10.9949C286.035 11.3258 285.938 11.7249 285.607 11.9263C284.945 12.329 284.25 12.8648 283.523 13.5336C283.459 13.7997 283.059 13.7026 282.925 13.6702L283.059 13.7026ZM309.571 19.0146C309.438 18.9823 309.305 18.9499 309.204 18.7845C308.667 18.0905 308.13 17.3964 307.427 16.8031C307.193 16.6053 307.189 16.0407 307.387 15.807C307.584 15.5732 308.15 15.5697 308.384 15.7675C309.054 16.4939 309.725 17.2202 310.262 17.9143C310.464 18.2451 310.367 18.6443 310.036 18.8456C310.003 18.9787 309.704 19.047 309.438 18.9823L309.571 19.0146ZM277.086 10.9839C277.086 10.9839 276.953 10.9515 276.819 10.9191C276.117 10.3258 275.382 9.86547 274.647 9.40516C274.247 9.30806 274.243 8.74349 274.441 8.50975C274.538 8.1106 275.103 8.10704 275.337 8.30482C276.206 8.7975 276.908 9.39084 277.611 9.9842C277.845 10.182 278.015 10.6459 277.651 10.9803C277.587 11.2464 277.155 11.2823 276.888 11.2176L277.086 10.9839ZM264.284 6.74743C264.018 6.68269 263.783 6.48492 263.715 6.18645C263.812 5.7873 263.876 5.52119 264.308 5.48525C265.173 5.41335 266.17 5.37383 267.135 5.46735C267.535 5.56445 267.737 5.89528 267.806 6.19375C267.709 6.5929 267.378 6.79427 267.079 6.86259C266.279 6.66838 265.282 6.70791 264.518 6.94522C264.518 6.94522 264.385 6.91285 264.252 6.88048L264.284 6.74743ZM272.409 8.1573L272.01 8.06019C271.242 7.73294 270.608 7.43803 269.809 7.24383C269.409 7.14672 269.207 6.81589 269.304 6.41674C269.401 6.01759 269.732 5.81622 270.132 5.91333C270.931 6.10753 271.731 6.30175 272.466 6.76206L272.866 6.85916C273.266 6.95626 273.435 7.42016 273.205 7.78694C273.14 8.05304 272.676 8.22203 272.409 8.1573ZM287.727 10.7505C287.461 10.6857 287.328 10.6533 287.259 10.3549C287.057 10.024 287.42 9.68961 287.618 9.45588C288.547 9.11788 289.444 8.91295 290.441 8.87342C290.841 8.97052 291.108 9.03529 291.144 9.4668C291.047 9.86595 290.982 10.132 290.55 10.168C289.686 10.2399 288.789 10.4448 287.994 10.8152C287.994 10.8152 287.727 10.7505 287.594 10.7181L287.727 10.7505ZM305.719 15.1201C305.719 15.1201 305.585 15.0877 305.452 15.0554C304.749 14.462 304.014 14.0017 303.279 13.5414C302.88 13.4443 302.876 12.8797 303.074 12.646C303.171 12.2468 303.736 12.2433 303.97 12.441C304.838 12.9337 305.573 13.394 306.276 13.9874C306.644 14.2175 306.68 14.649 306.45 15.0158C306.385 15.2819 305.953 15.3179 305.686 15.2531L305.719 15.1201ZM301.042 12.2935C301.042 12.2935 301.042 12.2935 300.909 12.2611C300.008 11.9015 299.241 11.5743 298.474 11.247C298.074 11.1499 297.904 10.686 298.102 10.4523C298.199 10.0532 298.664 9.88412 298.898 10.0819C299.831 10.3085 300.566 10.7688 301.466 11.1284C301.866 11.2255 301.902 11.6571 301.805 12.0562C301.741 12.3223 301.276 12.4913 301.01 12.4266L301.042 12.2935ZM293.111 10.0853C292.844 10.0206 292.642 9.68977 292.574 9.39131C292.671 8.99216 292.868 8.75841 293.301 8.72247C294.266 8.81599 295.231 8.90954 296.164 9.13611C296.43 9.20085 296.766 9.56405 296.669 9.9632C296.572 10.3624 296.241 10.5637 295.841 10.4666C294.908 10.24 294.108 10.0458 293.244 10.1177L293.111 10.0853Z" fill="#F6EBDE"/>
</svg>
